<svg version="1.0" xmlns="http://www.w3.org/2000/svg" width="933.333" height="933.333" viewBox="0 0 700 700"><path d="M0 350v350h700V0H0v350zm369-172.5c26.6 4.7 49.2 15 68.7 31.3 12.6 10.5 26.1 31.1 30.2 46.2 4 14.4 2.3 21.8-5.7 24-4.5 1.2-45.8 1.3-52.2.1-5.5-1.1-10.4-6.1-12-12.3-3.4-12.7-16.2-24-34.5-30.5-7.7-2.7-8.6-2.8-27.5-2.7-18 0-20.1.2-27.7 2.5-14.7 4.6-23.4 11.5-28.5 22.5-1.9 4.1-2.3 6.6-2.3 14.9 0 8.9.3 10.6 2.8 15.7 7.9 16.1 27.6 25.2 87.4 40.7 52.8 13.7 75.9 24.3 93.5 43 8.3 8.8 13.3 17.8 16.8 30.1 2.8 9.6 3.8 32.5 2 43.6-7.3 45.8-45.3 76.6-106.2 86.1-15.6 2.4-53.7 2.4-69.3 0-44.3-7-77.7-26.1-95.2-54.5-8.8-14.3-14.5-36.5-11.3-44.2 2.3-5.7 4.2-6 32.5-6 17 0 26.4.4 27.8 1.1 4.4 2.3 7.8 6.5 11.7 14.4 7.1 14.8 22.1 26.1 41.5 31.2 5.9 1.5 10.7 1.8 30 1.7 20.4 0 23.9-.3 31-2.2 18.3-5 29-12.7 34.8-25 2.8-6 3.2-7.7 3.2-15.7 0-7.8-.4-9.7-2.8-14.7-7.3-14.8-24.4-23.1-77.3-37.3-43-11.6-53.8-15.2-70.9-23.7-24.4-12.2-36.3-23.3-45-42.1-11.9-25.7-10.4-62.3 3.5-85.8 17.4-29.3 52.2-48.9 96.1-53.8 12.2-1.4 43.5-.6 54.9 1.4z"/></svg>