<?xml version="1.0" encoding="UTF-8"?><!DOCTYPE svg PUBLIC "-//W3C//DTD SVG 1.1//EN" "http://www.w3.org/Graphics/SVG/1.1/DTD/svg11.dtd"><svg xmlns="http://www.w3.org/2000/svg" xmlns:xlink="http://www.w3.org/1999/xlink"><defs>
<clipPath id="clip0_20162_261">
<rect width="31.8857" height="36" fill="white"/>
</clipPath>

<clipPath id="clip0_20162_244">
<rect width="20" height="19.7167" fill="white" transform="translate(0 0.0297852)"/>
</clipPath>

<clipPath id="clip0_20162_242">
<rect width="20" height="20" fill="white" transform="translate(0 0.0297852)"/>
</clipPath>

<clipPath id="clip0_20162_248">
<rect width="16" height="16" fill="white" transform="matrix(-1 0 0 1 16 0.0297852)"/>
</clipPath>

<clipPath id="clip0_20162_176">
<rect width="34" height="34" fill="white" transform="translate(0 0.0297852)"/>
</clipPath>

<clipPath id="clip0_0_199">
<rect width="44" height="44"/>
</clipPath>
<clipPath id="clip1_0_199">
<rect width="44" height="44"/>
</clipPath>

<clipPath id="clip0_0_161">
<rect width="44" height="44"/>
</clipPath>

<clipPath id="clip0_0_172">
<rect width="44" height="44" transform="matrix(1 0 0 -1 0.112793 44)"/>
</clipPath>

<clipPath id="clip0_0_263">
<rect width="44" height="44"/>
</clipPath>

<clipPath id="clip0_0_228">
<rect width="44" height="43.4894"/>
</clipPath>
</defs><symbol id="arrow-right" viewBox="0 0 14 13"><g fill="none">
<path d="M8.121 0.322816C7.93353 0.510344 7.82821 0.764652 7.82821 1.02982C7.82821 1.29498 7.93353 1.54929 8.121 1.73682L11.413 5.02982L1 5.03682C0.734784 5.03682 0.48043 5.14217 0.292893 5.32971C0.105357 5.51725 0 5.7716 0 6.03682C0 6.30203 0.105357 6.55639 0.292893 6.74392C0.48043 6.93146 0.734784 7.03682 1 7.03682L11.414 7.02982L8.121 10.3228C8.02549 10.4151 7.94931 10.5254 7.8969 10.6474C7.84449 10.7694 7.8169 10.9006 7.81575 11.0334C7.8146 11.1662 7.8399 11.2979 7.89018 11.4208C7.94046 11.5437 8.01471 11.6553 8.10861 11.7492C8.2025 11.8431 8.31415 11.9174 8.43705 11.9676C8.55994 12.0179 8.69162 12.0432 8.8244 12.0421C8.95718 12.0409 9.0884 12.0133 9.2104 11.9609C9.33241 11.9085 9.44275 11.8323 9.535 11.7368L13.121 8.15182C13.3996 7.87323 13.6207 7.54249 13.7715 7.17848C13.9222 6.81447 13.9999 6.42432 13.9999 6.03032C13.9999 5.63631 13.9222 5.24616 13.7715 4.88215C13.6207 4.51814 13.3996 4.1874 13.121 3.90882L9.535 0.322816C9.34747 0.135345 9.09316 0.0300293 8.828 0.0300293C8.56284 0.0300293 8.30853 0.135345 8.121 0.322816Z" fill="black"/>
</g></symbol><symbol id="cart" viewBox="0 0 21 20"><g fill="none">
<path d="M1 1.17578L3.08 1.5316L4.04301 12.8715C4.12001 13.7976 4.90301 14.5082 5.84301 14.5053H16.752C17.649 14.5072 18.41 13.8549 18.537 12.9772L19.486 6.49532C19.592 5.77083 19.083 5.09872 18.351 4.99395C18.287 4.98505 3.414 4.98011 3.414 4.98011" stroke-width="1.5" stroke-linecap="round" stroke-linejoin="round"/>
<path d="M12.375 8.63337H15.1479" stroke-width="1.5" stroke-linecap="round" stroke-linejoin="round"/>
<path fill-rule="evenodd" clip-rule="evenodd" d="M5.4043 17.9316C5.70527 17.9316 5.94824 18.1729 5.94824 18.4696C5.94824 18.7673 5.70527 19.0085 5.4043 19.0085C5.10333 19.0085 4.86035 18.7673 4.86035 18.4696C4.86035 18.1729 5.10333 17.9316 5.4043 17.9316Z" stroke-width="1.5" stroke-linecap="round" stroke-linejoin="round"/>
<path fill-rule="evenodd" clip-rule="evenodd" d="M16.6846 17.9316C16.9856 17.9316 17.2296 18.1729 17.2296 18.4696C17.2296 18.7673 16.9856 19.0085 16.6846 19.0085C16.3836 19.0085 16.1406 18.7673 16.1406 18.4696C16.1406 18.1729 16.3836 17.9316 16.6846 17.9316Z" stroke-width="1.5" stroke-linecap="round" stroke-linejoin="round"/>
</g></symbol><symbol id="check" viewBox="0 0 22 16"><g fill="none">
<path d="M7.69327 15.0298C7.41688 15.0298 7.14049 14.9267 6.92993 14.7214L0.316722 8.27407C-0.105574 7.86257 -0.105574 7.19724 0.316722 6.78574C0.738821 6.37424 1.4211 6.37424 1.8434 6.78574L7.69327 12.4887L20.1568 0.338409C20.5789 -0.0730896 21.2611 -0.0730896 21.6834 0.338409C22.1055 0.750101 22.1055 1.41524 21.6834 1.82694L8.45681 14.7214C8.24625 14.9267 7.96966 15.0298 7.69327 15.0298Z" fill="black"/>
</g></symbol><symbol id="chevron-down" viewBox="0 0 18 11"><g fill="none">
<path d="M8.42911 10.3295L0.220559 1.32199C-0.0735198 1.02642 -0.0735198 0.547048 0.220559 0.251469C0.514615 -0.0441096 0.991755 -0.0441095 1.28583 0.251469L9.00002 8.71583L16.7142 0.25222C17.0083 -0.0433591 17.4854 -0.0433591 17.7795 0.25222C18.0735 0.547799 18.0735 1.02717 17.7795 1.32272L9.57091 10.3302C9.41414 10.4878 9.20631 10.5553 9.00077 10.5448C8.79446 10.5546 8.58665 10.4871 8.42911 10.3295Z" fill="black"/>
</g></symbol><symbol id="chevron-left" viewBox="0 0 11 19"><g fill="none">
<path d="M0.216369 9.60067L9.22384 17.8092C9.51942 18.1033 9.99879 18.1033 10.2944 17.8092C10.5899 17.5152 10.5899 17.038 10.2944 16.744L1.83001 9.02976L10.2936 1.3156C10.5892 1.02152 10.5892 0.544384 10.2936 0.250326C9.99804 -0.0437298 9.51867 -0.0437299 9.22312 0.250326L0.21562 8.45888C0.0580805 8.61564 -0.00946155 8.82348 0.00106032 9.02901C-0.00873489 9.23532 0.0587852 9.44313 0.216369 9.60067Z" fill="black"/>
</g></symbol><symbol id="chevron-right" viewBox="0 0 11 19"><g fill="none">
<path d="M10.2997 9.60067L1.29221 17.8092C0.99663 18.1033 0.517263 18.1033 0.221684 17.8092C-0.0738948 17.5152 -0.0738948 17.038 0.221684 16.744L8.68604 9.02976L0.222432 1.3156C-0.0731465 1.02152 -0.0731465 0.544384 0.222432 0.250326C0.518011 -0.0437298 0.997378 -0.0437299 1.29293 0.250326L10.3004 8.45888C10.458 8.61564 10.5255 8.82348 10.515 9.02901C10.5248 9.23532 10.4573 9.44313 10.2997 9.60067Z" fill="black"/>
</g></symbol><symbol id="close-quote" viewBox="0 0 24 20"><g fill="none">
<path d="M18.7826 9.59501C17.5072 9.71095 16.4638 10.2037 15.6522 11.0733C14.8406 11.9428 14.4348 13.0443 14.4348 14.3776C14.4348 15.8269 14.8696 17.0153 15.7391 17.9428C16.6087 18.8124 17.7101 19.2472 19.0435 19.2472C20.5507 19.2472 21.7681 18.6965 22.6957 17.595C23.5652 16.4936 24 14.7834 24 12.4646C24 8.0008 22.5217 4.14573 19.5652 0.899349C18.9855 0.31964 18.3188 0.0297852 17.5652 0.0297852C16.9275 0.0297852 16.3768 0.26167 15.913 0.725439C15.4493 1.13123 15.2174 1.62399 15.2174 2.2037C15.2174 2.84138 15.4493 3.39211 15.913 3.85587C17.4203 5.42109 18.3768 7.33413 18.7826 9.59501ZM4.34783 9.59501C3.07247 9.71095 2.02899 10.2037 1.2174 11.0733C0.405802 11.9428 1.90735e-06 13.0443 1.90735e-06 14.3776C1.90735e-06 15.8269 0.434786 17.0153 1.30435 17.9428C2.17392 18.8124 3.27536 19.2472 4.6087 19.2472C6.11594 19.2472 7.33333 18.6965 8.26087 17.595C9.13044 16.4936 9.56522 14.7834 9.56522 12.4646C9.56522 8.0008 8.08696 4.14573 5.13044 0.899349C4.55073 0.31964 3.88406 0.0297852 3.13044 0.0297852C2.49276 0.0297852 1.94203 0.26167 1.47826 0.725439C1.0145 1.13123 0.782612 1.62399 0.782612 2.2037C0.782612 2.84138 1.0145 3.39211 1.47826 3.85587C2.98551 5.42109 3.94203 7.33413 4.34783 9.59501Z" fill="black"/>
</g></symbol><symbol id="delivery" viewBox="0 0 34 34"><g fill="none">
<path d="M6.51764 24.4988L6.92524 25.4692C7.21274 25.3513 7.51216 25.2641 7.8184 25.2091L7.62842 24.1753C7.24757 24.2438 6.8752 24.3522 6.51764 24.4988Z" fill="black"/>
<path d="M3.72681 27.1052L4.68306 27.563C5.014 26.8882 5.51742 26.3106 6.14353 25.8871L5.54388 25.0201C4.76488 25.547 4.13854 26.2657 3.72681 27.1052Z" fill="black"/>
<path d="M32.9375 26.8096C32.9381 25.9053 32.6008 25.0326 31.9904 24.3591L31.1987 25.0594C31.5128 25.4058 31.7279 25.8287 31.8219 26.2845H28.1562C28.0688 26.2845 27.9827 26.3058 27.9056 26.3466C27.8285 26.3874 27.7628 26.4464 27.7142 26.5183L25.747 29.435H24.4375V27.8597C24.4386 26.8852 24.8308 25.951 25.5279 25.2619C26.2251 24.5729 27.1703 24.1853 28.1562 24.1841H29.2188C29.7412 24.1833 30.2521 24.3354 30.6871 24.6214L31.2755 23.7469C30.8167 23.4451 30.2955 23.2485 29.75 23.1715V21.5587C29.75 21.4195 29.694 21.2859 29.5944 21.1874C29.4948 21.089 29.3596 21.0337 29.2188 21.0337C28.6554 21.033 28.1152 20.8115 27.7168 20.4178C27.3185 20.024 27.0944 19.4902 27.0938 18.9333V16.833H28.6875C28.8284 16.833 28.9635 16.7777 29.0632 16.6792C29.1628 16.5807 29.2188 16.4472 29.2188 16.3079V12.6323C29.2188 12.4931 29.1628 12.3595 29.0632 12.261C28.9635 12.1626 28.8284 12.1072 28.6875 12.1072H27.7505C27.5285 12.1076 27.3076 12.1377 27.0938 12.1967V11.5822C27.0938 11.4629 27.0527 11.3471 26.9773 11.254L25.2392 9.1064C25.4669 8.72678 25.5488 8.27884 25.4699 7.84446C25.391 7.41007 25.1566 7.01825 24.8095 6.74061C24.4624 6.46297 24.0259 6.31804 23.5796 6.33232C23.1333 6.3466 22.7071 6.51913 22.379 6.81838C22.0508 7.11763 21.8425 7.52362 21.7922 7.96213C21.7419 8.40065 21.853 8.84241 22.105 9.20668C22.3571 9.57095 22.7334 9.83339 23.1651 9.94605C23.5968 10.0587 24.0551 10.0141 24.4563 9.82025L26.0312 11.7663V12.4289L23.6957 11.6594C23.5427 11.6073 23.3819 11.5812 23.2201 11.5822H18.8381L16.316 8.67379C16.527 8.52889 16.6994 8.33568 16.8185 8.11066C16.9377 7.88563 16.9999 7.63546 17 7.3815V7.18092L17.7689 6.80095C17.8362 6.76765 17.8957 6.72057 17.9432 6.66284C17.9908 6.6051 18.0254 6.53803 18.0447 6.46607C18.064 6.39411 18.0677 6.31891 18.0553 6.24546C18.043 6.17201 18.015 6.10199 17.9733 6.04004L17.1007 4.74637C17.2218 4.72326 17.3311 4.65918 17.4096 4.56514C17.4882 4.4711 17.5312 4.35296 17.5312 4.231C17.5303 3.39573 17.1941 2.59495 16.5966 2.00432C15.999 1.41369 15.1888 1.08146 14.3438 1.08051C13.3433 1.08051 12.417 1.36451 11.728 2.11702C11.4295 2.44357 11.2034 2.82822 11.0641 3.24627C10.9249 3.66431 10.8757 4.10652 10.9196 4.54448L11.0333 5.66763C11.0812 6.15189 11.3153 6.5995 11.6875 6.91798V16.833C11.6872 17.2019 11.7859 17.5642 11.9734 17.8832H11.1562C10.9753 17.8831 10.7956 17.9136 10.625 17.9735V11.0571C10.6245 10.6394 10.4565 10.239 10.1577 9.94373C9.85889 9.64841 9.45379 9.4823 9.03125 9.48183H2.65625C2.23371 9.4823 1.82861 9.64841 1.52982 9.94373C1.23104 10.239 1.06297 10.6394 1.0625 11.0571V13.6825H2.125V12.6323H9.5625V17.8832H2.125V14.7327H1.0625V19.0202C1.06238 19.2661 1.14967 19.5043 1.30913 19.6932C1.46858 19.882 1.69008 20.0095 1.93495 20.0534L6.90625 20.9468V22.179C6.45584 22.2821 6.01601 22.426 5.59234 22.6089H2.65625C2.51535 22.6089 2.38023 22.6642 2.2806 22.7627C2.18097 22.8612 2.125 22.9947 2.125 23.134V25.6263C1.43087 26.7784 1.06382 28.0941 1.0625 29.435C1.0625 29.5742 1.11847 29.7078 1.2181 29.8063C1.31773 29.9047 1.45285 29.9601 1.59375 29.9601H4.02893C4.34641 30.7357 4.89103 31.4 5.59297 31.8677C6.29491 32.3355 7.12219 32.5854 7.96875 32.5854C8.81531 32.5854 9.64259 32.3355 10.3445 31.8677C11.0465 31.4 11.5911 30.7357 11.9086 29.9601H20.8409C21.211 29.9599 21.577 29.8833 21.9154 29.7354C22.2539 29.5875 22.5574 29.3713 22.8066 29.1009L23.375 28.4827V29.9601C23.375 30.0993 23.431 30.2329 23.5306 30.3313C23.6302 30.4298 23.7654 30.4851 23.9062 30.4851H25.007C25.4748 31.2859 26.1969 31.9117 27.0612 32.2656C27.9255 32.6194 28.8838 32.6815 29.7875 32.4421C30.6912 32.2028 31.4897 31.6755 32.0592 30.9419C32.6287 30.2083 32.9375 29.3095 32.9375 28.3848C32.9379 27.9826 32.8796 27.5825 32.7644 27.1968C32.819 27.1477 32.8626 27.0879 32.8924 27.0213C32.9222 26.9546 32.9375 26.8825 32.9375 26.8096ZM22.8438 8.16912C22.8438 8.01335 22.8905 7.86107 22.978 7.73154C23.0656 7.60202 23.1901 7.50107 23.3357 7.44145C23.4813 7.38184 23.6415 7.36624 23.7961 7.39663C23.9507 7.42702 24.0927 7.50204 24.2041 7.61219C24.3155 7.72234 24.3914 7.86268 24.4222 8.01546C24.4529 8.16825 24.4372 8.32661 24.3768 8.47053C24.3165 8.61445 24.2144 8.73746 24.0833 8.82401C23.9523 8.91055 23.7982 8.95675 23.6406 8.95675C23.4293 8.95652 23.2268 8.87347 23.0774 8.72581C22.928 8.57815 22.844 8.37794 22.8438 8.16912ZM15.2436 26.8096C14.7233 26.809 14.2245 26.6044 13.8566 26.2408C13.4888 25.8772 13.2818 25.3842 13.2812 24.87C13.2812 24.3545 13.4131 23.8723 13.7607 23.4757C14.0705 23.1231 14.4982 22.8925 14.9658 22.8259C15.5302 22.7463 16.0467 22.4681 16.4204 22.0424C16.794 21.6167 16.9998 21.0721 17 20.5086C17.0001 20.4396 16.9864 20.3712 16.9597 20.3075C16.9329 20.2437 16.8937 20.1858 16.8443 20.1371C16.9346 19.9505 16.9867 19.7481 16.9978 19.5416C17.0088 19.335 16.9785 19.1283 16.9086 18.9333H18.3515L16.0202 24.9241C15.9639 25.0684 15.9358 25.2219 15.9375 25.3765V26.8096H15.2436ZM17 25.7594H19.6562C19.7702 25.7595 19.8811 25.7958 19.9725 25.8629C20.064 25.9301 20.1312 26.0245 20.1642 26.1323C20.1972 26.2401 20.1943 26.3555 20.1559 26.4615C20.1175 26.5675 20.0456 26.6585 19.9509 26.7211C19.8174 26.7789 19.6732 26.8091 19.5274 26.8096H17V25.7594ZM21.1226 25.6675C21.017 25.4232 20.8507 25.2092 20.6391 25.0452C20.4275 24.8813 20.1776 24.7727 19.9123 24.7296L22.1124 19.4943C22.3079 19.029 22.3843 18.5232 22.3347 18.0218C22.285 17.5204 22.111 17.0388 21.828 16.6198C21.545 16.2007 21.1618 15.8572 20.7123 15.6196C20.2628 15.382 19.7609 15.2577 19.2512 15.2577H17V14.4251L17.1556 14.5789C17.2049 14.6276 17.2635 14.6663 17.3279 14.6927C17.3924 14.7191 17.4615 14.7327 17.5312 14.7327H22.9351C22.85 14.9702 22.8238 15.2245 22.8588 15.4742C22.8938 15.7238 22.9888 15.9615 23.1361 16.1673C23.2833 16.3731 23.4783 16.541 23.7048 16.6568C23.9312 16.7727 24.1825 16.8331 24.4375 16.833H24.439C24.0927 17.2868 23.9056 17.8398 23.9062 18.4082V22.4816C23.9054 22.7599 23.7936 23.0267 23.595 23.2241L21.1226 25.6675ZM24.4375 15.7828C24.3324 15.7828 24.2297 15.752 24.1424 15.6943C24.055 15.6366 23.9869 15.5546 23.9467 15.4587C23.9065 15.3627 23.896 15.2572 23.9165 15.1553C23.937 15.0534 23.9876 14.9599 24.0618 14.8864C24.1361 14.813 24.2308 14.763 24.3339 14.7427C24.4369 14.7225 24.5437 14.7329 24.6408 14.7726C24.7379 14.8124 24.8208 14.8797 24.8792 14.966C24.9376 15.0524 24.9688 15.1539 24.9688 15.2577C24.9686 15.397 24.9126 15.5304 24.813 15.6289C24.7134 15.7273 24.5783 15.7827 24.4375 15.7828ZM28.1562 13.1574V15.7828H27.0938V13.3209C27.2958 13.214 27.5213 13.1578 27.7505 13.1574H28.1562ZM26.0312 15.2577C26.0313 15.0057 25.9702 14.7573 25.853 14.5335C25.7358 14.3097 25.566 14.1169 25.3578 13.9714C25.1496 13.8259 24.9091 13.7319 24.6565 13.6974C24.4039 13.6628 24.1466 13.6887 23.9062 13.7728V12.8358L26.0312 13.5359V15.2577ZM18.5938 12.6323H22.8438V13.6825H17.7513L14.7194 10.6858L13.9681 11.4284L15.9375 13.3749V15.2577H12.75V8.95675H15.1619L18.1904 12.449C18.2403 12.5065 18.3021 12.5527 18.3718 12.5843C18.4414 12.616 18.5171 12.6323 18.5938 12.6323ZM12.5158 2.82168C13.0014 2.29128 13.6459 2.13067 14.3438 2.13067C14.8147 2.13126 15.2722 2.28621 15.6446 2.57126C16.0169 2.8563 16.2832 3.25535 16.4015 3.70592H14.3438C14.2029 3.70592 14.0677 3.76124 13.9681 3.85971C13.8685 3.95818 13.8125 4.09174 13.8125 4.231V5.47807C13.8117 5.69645 13.7262 5.90621 13.5737 6.06417C13.4211 6.22214 13.2131 6.31628 12.9925 6.32721C12.7718 6.33815 12.5553 6.26504 12.3875 6.12295C12.2197 5.98086 12.1135 5.7806 12.0906 5.5634L11.9769 4.44025C11.9458 4.14813 11.9777 3.85281 12.0706 3.5738C12.1635 3.29479 12.3152 3.03844 12.5158 2.82168ZM12.9492 7.3815C13.4598 7.38098 13.9493 7.18027 14.3104 6.82342C14.6714 6.46657 14.8745 5.98273 14.875 5.47807V4.75608H15.9375C15.9375 4.85976 15.9685 4.96113 16.0267 5.04737L16.7554 6.12786L16.2308 6.38699C16.1427 6.43063 16.0686 6.49765 16.0168 6.58056C15.9649 6.66346 15.9375 6.75898 15.9375 6.85642V7.3815C15.9373 7.52071 15.8813 7.65418 15.7817 7.75262C15.6821 7.85105 15.5471 7.90642 15.4062 7.90658H12.75V7.37119C12.8162 7.37797 12.8827 7.38141 12.9492 7.3815ZM12.75 16.833V16.3079H19.2512C19.5861 16.3079 19.9159 16.3896 20.2112 16.5457C20.5065 16.7019 20.7584 16.9276 20.9443 17.203C21.1302 17.4783 21.2446 17.7948 21.2771 18.1242C21.3097 18.4537 21.2595 18.786 21.1311 19.0918L18.7704 24.7092H17.2423L19.6209 18.5967C19.6518 18.5172 19.6627 18.4314 19.6526 18.3468C19.6425 18.2621 19.6117 18.1812 19.5629 18.111C19.5141 18.0407 19.4487 17.9833 19.3724 17.9436C19.2961 17.9039 19.2112 17.8832 19.125 17.8832H13.8125C13.5308 17.8828 13.2608 17.7721 13.0616 17.5752C12.8624 17.3783 12.7503 17.1114 12.75 16.833ZM11.1562 18.9333H15.4062C15.5471 18.9333 15.6823 18.9886 15.7819 19.0871C15.8815 19.1856 15.9375 19.3191 15.9375 19.4584C15.9375 19.5977 15.8815 19.7312 15.7819 19.8297C15.6823 19.9282 15.5471 19.9835 15.4062 19.9835H11.1562C11.0154 19.9835 10.8802 19.9282 10.7806 19.8297C10.681 19.7312 10.625 19.5977 10.625 19.4584C10.625 19.3191 10.681 19.1856 10.7806 19.0871C10.8802 18.9886 11.0154 18.9333 11.1562 18.9333ZM2.125 11.5822V11.0571C2.12516 10.9179 2.18118 10.7844 2.28077 10.686C2.38037 10.5875 2.5154 10.5322 2.65625 10.532H9.03125C9.1721 10.5322 9.30713 10.5875 9.40673 10.686C9.50632 10.7844 9.56234 10.9179 9.5625 11.0571V11.5822H2.125ZM2.125 18.9333H9.5625V19.9835H7.48538L2.125 19.0202V18.9333ZM3.84426 23.6591C3.61366 23.8441 3.39435 24.0425 3.1875 24.2532V23.6591H3.84426ZM7.96875 31.5353C7.40983 31.5328 6.86124 31.3862 6.37723 31.1099C5.89322 30.8337 5.49055 30.4373 5.20904 29.9601H6.56452C6.9522 30.2984 7.45157 30.4851 7.96875 30.4851C8.48593 30.4851 8.9853 30.2984 9.37298 29.9601H10.7285C10.447 30.4373 10.0443 30.8337 9.56027 31.1099C9.07626 31.3862 8.52767 31.5328 7.96875 31.5353ZM22.0203 28.3947C21.8708 28.5569 21.6887 28.6865 21.4856 28.7752C21.2825 28.8639 21.063 28.9098 20.8409 28.9099H2.14698C2.26123 27.539 2.81959 26.2411 3.7392 25.2087C4.6588 24.1764 5.89066 23.4645 7.25196 23.1789C7.38929 23.1494 7.52939 23.1343 7.66992 23.134H11.1562V22.0838H7.96875V21.0337H15.8246C15.7346 21.2333 15.5948 21.4072 15.4182 21.5389C15.2417 21.6705 15.0342 21.7558 14.8152 21.7866C14.0946 21.8891 13.4353 22.2444 12.9579 22.7877C12.4438 23.3728 12.2188 24.1047 12.2188 24.87C12.2183 25.5815 12.4757 26.2696 12.9444 26.8096H8.5V27.8597H19.5274C20.0902 27.8556 20.6292 27.635 21.03 27.2445L24.3463 23.9667C24.7435 23.5719 24.9671 23.0383 24.9688 22.4816V18.4082C24.9691 18.0826 25.0715 17.765 25.2617 17.4991C25.4519 17.2331 25.7207 17.0319 26.0312 16.923V18.9333C26.0322 19.6776 26.2993 20.3976 26.7854 20.9661C27.2714 21.5346 27.9452 21.915 28.6875 22.04V23.134C28.3577 23.134 28.0202 23.1143 27.6923 23.1566C26.6985 23.254 25.7603 23.656 25.0089 24.3062C24.2576 24.9565 23.7306 25.8225 23.5016 26.7833L22.0203 28.3947ZM28.4405 27.3346H28.4675L29.1087 27.9685C29.2202 28.0791 29.2829 28.2287 29.2832 28.3848C29.2832 28.5013 29.2482 28.6151 29.1828 28.7119C29.1173 28.8087 29.0243 28.8842 28.9155 28.9288C28.8066 28.9733 28.6868 28.985 28.5713 28.9623C28.4557 28.9396 28.3496 28.8835 28.2663 28.8011L27.7773 28.3179L28.4405 27.3346ZM28.6875 31.5353C28.2272 31.5339 27.7726 31.4344 27.3546 31.2438C26.9366 31.0532 26.5651 30.7758 26.2653 30.4305C26.3494 30.39 26.4212 30.3282 26.4733 30.2513L26.9338 29.5687C27.1896 29.9395 27.5589 30.2195 27.9875 30.3677C28.4161 30.5158 28.8815 30.5243 29.3153 30.3919C29.7492 30.2595 30.1287 29.9931 30.3981 29.6319C30.6676 29.2707 30.8128 28.8336 30.8125 28.3848C30.8133 28.0737 30.7432 27.7663 30.6074 27.4856C30.5826 27.4339 30.5553 27.3839 30.5266 27.3346H31.6934C31.863 27.8099 31.9148 28.3184 31.8446 28.8175C31.7743 29.3167 31.584 29.7919 31.2896 30.2033C30.9952 30.6148 30.6052 30.9504 30.1525 31.1822C29.6997 31.414 29.1974 31.535 28.6875 31.5353Z" fill="black"/>
<path d="M4.25 13.6819H3.1875V16.8324H4.25V13.6819Z" fill="black"/>
</g></symbol><symbol id="filters" viewBox="0 0 32 36"><g fill="none">
<g clip-path="url(#clip0_20162_261)">
<path d="M13.7804 28.1251H1.13878C0.510161 28.1251 9.68073e-07 28.6291 9.95549e-07 29.2501C1.02303e-06 29.8711 0.510218 30.3751 1.13878 30.3751H13.7803C14.3076 32.9423 16.6046 34.8751 19.3593 34.8751C22.114 34.8751 24.4108 32.9423 24.938 30.3751H30.7469C31.3755 30.3751 31.8857 29.8711 31.8857 29.2501C31.8857 28.6291 31.3755 28.1251 30.7469 28.1251H24.9383C24.411 25.5578 22.114 23.6251 19.3593 23.6251C16.6047 23.6251 14.3076 25.5578 13.7804 28.1251ZM22.7755 29.2501C22.7755 31.1142 21.2463 32.6251 19.3593 32.6251C17.4723 32.6251 15.9429 31.1142 15.9429 29.2501C15.9429 27.3859 17.4723 25.8751 19.3593 25.8751C21.2463 25.8751 22.7755 27.3859 22.7755 29.2501ZM2.39261 16.875H1.13878C0.510161 16.875 4.70298e-07 17.3791 4.97775e-07 18C5.25251e-07 18.621 0.510161 19.125 1.13878 19.125H2.39255C2.9198 21.6923 5.21671 23.6251 7.97145 23.6251C10.7262 23.6251 13.023 21.6923 13.5503 19.125H30.7469C31.3755 19.125 31.8857 18.621 31.8857 18C31.8857 17.379 31.3755 16.875 30.7469 16.875H13.5503C13.0231 14.3078 10.7262 12.375 7.9715 12.375C5.21682 12.375 2.91984 14.3078 2.39261 16.875ZM11.3878 18C11.3878 19.8642 9.8584 21.375 7.97145 21.375C6.08448 21.375 4.5551 19.8642 4.5551 18C4.5551 16.1359 6.08448 14.625 7.97145 14.625C9.8584 14.625 11.3878 16.1359 11.3878 18ZM18.3355 5.62502H1.13878C0.510161 5.62502 -2.74764e-08 6.12906 0 6.75001C2.74741e-08 7.37097 0.510161 7.87501 1.13878 7.87501H18.3355C18.8627 10.4423 21.1597 12.375 23.9143 12.375C26.669 12.375 28.9659 10.4423 29.4931 7.87501H30.7469C31.3755 7.87501 31.8857 7.37097 31.8857 6.75001C31.8857 6.12906 31.3755 5.62502 30.7469 5.62502H29.4931C28.9659 3.05774 26.669 1.125 23.9143 1.125C21.1597 1.125 18.8628 3.05774 18.3355 5.62502ZM27.3306 6.75001C27.3306 8.61414 25.8012 10.125 23.9143 10.125C22.0274 10.125 20.498 8.61414 20.498 6.75001C20.498 4.88587 22.0274 3.37499 23.9143 3.37499C25.8012 3.37499 27.3306 4.88587 27.3306 6.75001Z" fill="black"/>
</g>

</g></symbol><symbol id="left" viewBox="0 0 11 19"><g fill="none">
<path d="M8.19676 18.079L0.450821 10.333C-0.150273 9.72883 -0.150273 8.75289 0.450821 8.14867L8.19676 0.402734C8.77613 -0.0945317 9.63285 -0.0945317 10.2122 0.402734C10.8614 0.958906 10.9372 1.93797 10.3811 2.58711L3.73512 9.23313L10.3811 15.8946C10.9822 16.4988 10.9822 17.4748 10.3811 18.079C9.77691 18.6801 8.8009 18.6801 8.19676 18.079Z" fill="black"/>
</g></symbol><symbol id="minus" viewBox="0 0 20 20"><g fill="none">
<g clip-path="url(#clip0_20162_244)">
<path d="M19.1666 9.06659H0.833348C0.373095 9.06659 0 9.4344 0 9.88814C0 10.3419 0.373095 10.7097 0.833348 10.7097H19.1667C19.6269 10.7097 20 10.3419 20 9.88814C20 9.4344 19.6269 9.06659 19.1666 9.06659Z" fill="black"/>
</g>

</g></symbol><symbol id="open-quote" viewBox="0 0 24 20"><g fill="none">
<path d="M5.21739 9.59501C6.49275 9.71095 7.53623 10.2037 8.34782 11.0733C9.15942 11.9428 9.56522 13.0443 9.56522 14.3776C9.56522 15.8269 9.13043 17.0153 8.26087 17.9428C7.3913 18.8124 6.28986 19.2472 4.95652 19.2472C3.44928 19.2472 2.23188 18.6965 1.30435 17.595C0.434783 16.4936 0 14.7834 0 12.4646C0 8.0008 1.47826 4.14573 4.43478 0.899349C5.01449 0.31964 5.68116 0.0297852 6.43478 0.0297852C7.07246 0.0297852 7.62319 0.26167 8.08696 0.725439C8.55072 1.13123 8.78261 1.62399 8.78261 2.2037C8.78261 2.84138 8.55072 3.39211 8.08696 3.85587C6.57971 5.42109 5.62319 7.33413 5.21739 9.59501ZM19.6522 9.59501C20.9275 9.71095 21.971 10.2037 22.7826 11.0733C23.5942 11.9428 24 13.0443 24 14.3776C24 15.8269 23.5652 17.0153 22.6957 17.9428C21.8261 18.8124 20.7246 19.2472 19.3913 19.2472C17.8841 19.2472 16.6667 18.6965 15.7391 17.595C14.8696 16.4936 14.4348 14.7834 14.4348 12.4646C14.4348 8.0008 15.913 4.14573 18.8696 0.899349C19.4493 0.31964 20.1159 0.0297852 20.8696 0.0297852C21.5072 0.0297852 22.058 0.26167 22.5217 0.725439C22.9855 1.13123 23.2174 1.62399 23.2174 2.2037C23.2174 2.84138 22.9855 3.39211 22.5217 3.85587C21.0145 5.42109 20.058 7.33413 19.6522 9.59501Z" fill="black"/>
</g></symbol><symbol id="plus" viewBox="0 0 20 21"><g fill="none">
<g clip-path="url(#clip0_20162_242)">
<path d="M18.9999 9.02979H11.0001V1.02972C11.0001 0.477844 10.552 0.0297852 9.99994 0.0297852C9.44806 0.0297852 9 0.477844 9 1.02972V9.02979H0.999939C0.448059 9.02979 0 9.47784 0 10.0297C0 10.5818 0.448059 11.0298 0.999939 11.0298H9V19.0297C9 19.5818 9.44806 20.0298 9.99994 20.0298C10.552 20.0298 11.0001 19.5818 11.0001 19.0297V11.0298H18.9999C19.552 11.0298 20.0001 10.5818 20.0001 10.0297C20.0001 9.47784 19.552 9.02979 18.9999 9.02979Z" fill="black"/>
</g>

</g></symbol><symbol id="restorant" viewBox="0 0 34 35"><g fill="none">
<path d="M32.4062 28.186H28.6875V17.5139C29.016 17.4463 29.3259 17.3081 29.5956 17.1087C29.8653 16.9093 30.0884 16.6536 30.2492 16.3593C30.4101 16.065 30.505 15.7392 30.5273 15.4045C30.5495 15.0699 30.4987 14.7344 30.3782 14.4213L28.6875 10.0246V1.62354C28.6875 1.55377 28.6738 1.48468 28.6471 1.42021C28.6204 1.35575 28.5813 1.29718 28.5319 1.24784C28.4826 1.19851 28.424 1.15938 28.3596 1.13269C28.2951 1.106 28.226 1.09227 28.1562 1.09229H5.84375C5.77398 1.09227 5.70489 1.106 5.64043 1.13269C5.57597 1.15938 5.51739 1.19851 5.46806 1.24784C5.41872 1.29718 5.37959 1.35575 5.3529 1.42021C5.32621 1.48468 5.31248 1.55377 5.3125 1.62354V10.0246L3.6218 14.4213C3.50132 14.7344 3.45045 15.0699 3.47272 15.4045C3.49499 15.7392 3.58987 16.065 3.75076 16.3593C3.91165 16.6536 4.1347 16.9093 4.40439 17.1087C4.67409 17.3081 4.98397 17.4463 5.3125 17.5139V28.186H1.59375C1.52398 28.186 1.45489 28.1997 1.39043 28.2264C1.32597 28.2531 1.26739 28.2923 1.21806 28.3416C1.16872 28.3909 1.12959 28.4495 1.1029 28.514C1.07621 28.5784 1.06248 28.6475 1.0625 28.7173V32.436C1.06248 32.5058 1.07621 32.5749 1.1029 32.6394C1.12959 32.7038 1.16872 32.7624 1.21806 32.8117C1.26739 32.8611 1.32597 32.9002 1.39043 32.9269C1.45489 32.9536 1.52398 32.9673 1.59375 32.9673H32.4062C32.476 32.9673 32.5451 32.9536 32.6096 32.9269C32.674 32.9002 32.7326 32.8611 32.7819 32.8117C32.8313 32.7624 32.8704 32.7038 32.8971 32.6394C32.9238 32.5749 32.9375 32.5058 32.9375 32.436V28.7173C32.9375 28.6475 32.9238 28.5784 32.8971 28.514C32.8704 28.4495 32.8313 28.3909 32.7819 28.3416C32.7326 28.2923 32.674 28.2531 32.6096 28.2264C32.5451 28.1997 32.476 28.186 32.4062 28.186ZM26.5625 28.186V16.8551C26.8532 17.1565 27.2205 17.373 27.625 17.4813V28.186H26.5625ZM22.3125 28.7173V31.9048H20.1875V28.186H21.25C21.3909 28.186 21.526 28.1301 21.6256 28.0304C21.7253 27.9308 21.7812 27.7957 21.7812 27.6548V26.061C21.7812 25.9201 21.7253 25.785 21.6256 25.6854C21.526 25.5858 21.3909 25.5298 21.25 25.5298H18.0625C17.9216 25.5298 17.7865 25.5858 17.6869 25.6854C17.5872 25.785 17.5313 25.9201 17.5312 26.061V27.6548C17.5313 27.7957 17.5872 27.9308 17.6869 28.0304C17.7865 28.1301 17.9216 28.186 18.0625 28.186H19.125V31.9048H17V28.7173C17 28.6475 16.9863 28.5784 16.9596 28.514C16.9329 28.4495 16.8938 28.3909 16.8444 28.3416C16.7951 28.2923 16.7365 28.2531 16.6721 28.2264C16.6076 28.1997 16.5385 28.186 16.4688 28.186H15.4062V26.5923C15.4063 26.5225 15.3925 26.4534 15.3658 26.389C15.3392 26.3245 15.3 26.2659 15.2507 26.2166C15.2014 26.1673 15.1428 26.1281 15.0783 26.1014C15.0139 26.0747 14.9448 26.061 14.875 26.061H13.8125V17.5126C14.3275 17.4059 14.7907 17.1267 15.1254 16.721C15.1579 16.7615 15.1924 16.8007 15.2289 16.8392C15.444 17.0682 15.7039 17.2505 15.9925 17.3747C16.2811 17.4989 16.5922 17.5623 16.9064 17.561H17.0936C17.4078 17.5623 17.7189 17.4989 18.0075 17.3747C18.2961 17.2505 18.556 17.0682 18.771 16.8392C18.8076 16.8007 18.8421 16.7615 18.8746 16.721C18.9514 16.8135 19.0351 16.8999 19.125 16.9795V18.6235C18.4207 18.6242 17.7455 18.9043 17.2475 19.4023C16.7495 19.9003 16.4695 20.5755 16.4687 21.2798C16.4687 21.3496 16.4825 21.4186 16.5091 21.4831C16.5358 21.5476 16.575 21.6061 16.6243 21.6555C16.6736 21.7048 16.7322 21.7439 16.7967 21.7706C16.8611 21.7973 16.9302 21.8111 17 21.811H22.3125C22.3823 21.8111 22.4514 21.7973 22.5158 21.7706C22.5803 21.7439 22.6389 21.7048 22.6882 21.6555C22.7375 21.6061 22.7767 21.5476 22.8033 21.4831C22.83 21.4186 22.8438 21.3496 22.8437 21.2798C22.843 20.5755 22.563 19.9003 22.065 19.4023C21.567 18.9043 20.8918 18.6242 20.1875 18.6235V17.5126C20.3419 17.5449 20.4992 17.5612 20.657 17.561H20.823C21.1583 17.5613 21.4896 17.4885 21.7938 17.3476C22.0981 17.2068 22.368 17.0013 22.5848 16.7456C22.5987 16.7296 22.612 16.713 22.6246 16.6964C22.841 16.9671 23.1157 17.1855 23.4282 17.3352C23.7407 17.4849 24.083 17.5621 24.4295 17.561H24.5325C24.8663 17.5616 25.1964 17.4901 25.5 17.3512V26.061H24.4375C24.3677 26.061 24.2986 26.0747 24.2342 26.1014C24.1697 26.1281 24.1111 26.1673 24.0618 26.2166C24.0125 26.2659 23.9733 26.3245 23.9467 26.389C23.92 26.4534 23.9062 26.5225 23.9062 26.5923V28.186H22.8438C22.774 28.186 22.7049 28.1997 22.6404 28.2264C22.576 28.2531 22.5174 28.2923 22.4681 28.3416C22.4187 28.3909 22.3796 28.4495 22.3529 28.514C22.3262 28.5784 22.3125 28.6475 22.3125 28.7173ZM18.5938 27.1235V26.5923H20.7188V27.1235H18.5938ZM8.26359 14.9227L9.43633 10.6548H11.5925L10.8016 15.454C10.7543 15.7461 10.6043 16.0118 10.3786 16.2032C10.153 16.3947 9.86642 16.4994 9.57047 16.4985H9.46754C9.27573 16.4985 9.08651 16.4542 8.91458 16.3691C8.74265 16.2841 8.59263 16.1605 8.47618 16.0081C8.35973 15.8557 8.27997 15.6785 8.2431 15.4903C8.20623 15.302 8.21324 15.1078 8.26359 14.9227ZM8.5 17.3512C8.80362 17.4901 9.13367 17.5616 9.46754 17.561H9.57047C9.917 17.5621 10.2593 17.4849 10.5718 17.3352C10.8843 17.1855 11.159 16.9671 11.3754 16.6964C11.388 16.713 11.4013 16.7296 11.4152 16.7456C11.7578 17.1498 12.2292 17.4237 12.75 17.5212V20.2173H8.5V17.3512ZM13.177 16.4985C12.9959 16.4986 12.817 16.4593 12.6526 16.3832C12.4883 16.3072 12.3425 16.1963 12.2253 16.0582C12.1082 15.9201 12.0225 15.7582 11.9742 15.5837C11.926 15.4091 11.9163 15.2262 11.9458 15.0476L12.6696 10.6548H14.8451L14.5888 15.3192C14.5713 15.6377 14.4324 15.9375 14.2007 16.1569C13.969 16.3762 13.6621 16.4985 13.343 16.4985H13.177ZM17.9994 16.1087C17.8832 16.2323 17.7429 16.3307 17.587 16.3978C17.4312 16.4649 17.2633 16.4991 17.0936 16.4985H16.9064C16.7371 16.4985 16.5695 16.464 16.4139 16.3972C16.2584 16.3303 16.118 16.2325 16.0015 16.1097C15.8849 15.9869 15.7946 15.8416 15.736 15.6827C15.6774 15.5239 15.6517 15.3548 15.6606 15.1857L15.909 10.6548H18.0911L18.3394 15.1824V15.1857C18.3491 15.3546 18.3239 15.5238 18.2654 15.6826C18.207 15.8414 18.1164 15.9864 17.9994 16.1087ZM19.4112 15.3192L19.1549 10.6548H21.3304L22.0542 15.0476C22.0837 15.2262 22.0741 15.4091 22.0258 15.5837C21.9775 15.7582 21.8918 15.9201 21.7747 16.0582C21.6575 16.1963 21.5117 16.3072 21.3474 16.3832C21.183 16.4593 21.0041 16.4986 20.823 16.4985H20.657C20.3379 16.4985 20.031 16.3762 19.7993 16.1569C19.5676 15.9375 19.4287 15.6377 19.4112 15.3192V15.3192ZM20.1875 19.686C20.517 19.6864 20.8383 19.7888 21.1074 19.979C21.3764 20.1692 21.58 20.438 21.6903 20.7485H17.6222C17.7325 20.438 17.9361 20.1692 18.2051 19.979C18.4742 19.7888 18.7955 19.6864 19.125 19.686H20.1875ZM25.5246 16.0071C25.4087 16.1604 25.2587 16.2846 25.0865 16.3699C24.9143 16.4552 24.7246 16.4992 24.5325 16.4985H24.4295C24.1336 16.4994 23.847 16.3947 23.6214 16.2032C23.3957 16.0118 23.2457 15.7461 23.1984 15.454L22.4075 10.6548H24.5637L25.7357 14.9201C25.7357 14.9207 25.7364 14.9221 25.7364 14.9227C25.7874 15.1075 25.7947 15.3017 25.758 15.4898C25.7212 15.678 25.6413 15.8551 25.5246 16.0071ZM24.9688 27.1235H25.5V28.186H24.9688V27.1235ZM29.3868 14.8025C29.4595 14.9916 29.4851 15.1955 29.4614 15.3966C29.4377 15.5978 29.3654 15.7901 29.2508 15.9571C29.1361 16.1241 28.9825 16.2606 28.8033 16.3549C28.624 16.4493 28.4245 16.4986 28.222 16.4985C27.9488 16.4979 27.6834 16.408 27.4661 16.2424C27.2488 16.0768 27.0917 15.8447 27.0187 15.5815L25.6654 10.6548H27.7917L29.3868 14.8025ZM6.375 2.15479H27.625V9.59229H6.375V2.15479ZM4.74937 15.9573C4.63329 15.791 4.56011 15.5985 4.53636 15.397C4.51261 15.1955 4.53902 14.9913 4.61324 14.8025L6.20832 10.6548H8.33465L6.98129 15.5815C6.90827 15.8447 6.75115 16.0768 6.53389 16.2424C6.31664 16.408 6.05117 16.4979 5.77801 16.4985C5.57524 16.5 5.37525 16.4514 5.1958 16.357C5.01635 16.2626 4.863 16.1253 4.74937 15.9573ZM6.375 17.4813C6.77946 17.373 7.14677 17.1565 7.4375 16.8551V28.186H6.375V17.4813ZM10.625 31.9048H2.125V29.2485H10.625V31.9048ZM11.1562 28.186H8.5V21.2798H12.75V31.9048H11.6875V28.7173C11.6875 28.6475 11.6738 28.5784 11.6471 28.514C11.6204 28.4495 11.5813 28.3909 11.5319 28.3416C11.4826 28.2923 11.424 28.2531 11.3596 28.2264C11.2951 28.1997 11.226 28.186 11.1562 28.186ZM13.8125 27.1235H14.3438V28.7173C14.3437 28.7871 14.3575 28.8561 14.3842 28.9206C14.4108 28.9851 14.45 29.0436 14.4993 29.093C14.5486 29.1423 14.6072 29.1814 14.6717 29.2081C14.7361 29.2348 14.8052 29.2486 14.875 29.2485H15.9375V31.9048H13.8125V27.1235ZM31.875 31.9048H23.375V29.2485H31.875V31.9048Z" fill="black"/>
<path d="M20.7188 6.40479H20.1424C20.031 5.75279 19.72 5.15143 19.2523 4.68372C18.7846 4.21601 18.1832 3.90501 17.5312 3.79365V3.21729C17.5312 3.07639 17.4753 2.94126 17.3757 2.84163C17.276 2.74201 17.1409 2.68604 17 2.68604C16.8591 2.68604 16.724 2.74201 16.6243 2.84163C16.5247 2.94126 16.4688 3.07639 16.4688 3.21729V3.79365C15.8168 3.90501 15.2154 4.21601 14.7477 4.68372C14.28 5.15143 13.969 5.75279 13.8576 6.40479H13.2812C13.1404 6.40479 13.0052 6.46076 12.9056 6.56039C12.806 6.66001 12.75 6.79514 12.75 6.93604C12.7506 7.49942 12.9747 8.03956 13.3731 8.43793C13.7715 8.83631 14.3116 9.0604 14.875 9.06104H19.125C19.6884 9.0604 20.2285 8.83631 20.6269 8.43793C21.0253 8.03956 21.2494 7.49942 21.25 6.93604C21.25 6.79514 21.194 6.66001 21.0944 6.56039C20.9948 6.46076 20.8596 6.40479 20.7188 6.40479ZM17 4.81104C17.471 4.81164 17.9285 4.96841 18.3008 5.2568C18.6732 5.5452 18.9394 5.94893 19.0578 6.40479H14.9422C15.0606 5.94893 15.3268 5.5452 15.6992 5.2568C16.0715 4.96841 16.529 4.81164 17 4.81104ZM19.125 7.99854H14.875C14.6885 7.99844 14.5054 7.9493 14.3439 7.85605C14.1825 7.76281 14.0484 7.62873 13.9551 7.46729H20.0449C19.9516 7.62873 19.8175 7.76281 19.6561 7.85605C19.4946 7.9493 19.3115 7.99844 19.125 7.99854Z" fill="black"/>
<path d="M13.0447 5.25305C13.1174 5.20454 13.1771 5.13882 13.2184 5.06171C13.2597 4.9846 13.2813 4.89849 13.2812 4.81104V3.21729H12.2188V4.50767C12.0502 4.5937 11.8718 4.65894 11.6875 4.70197V3.21729H10.625V4.70197C10.4407 4.65894 10.2623 4.59369 10.0938 4.50767V3.21729H9.03125V4.81104C9.03125 4.89849 9.05284 4.9846 9.09411 5.06171C9.13538 5.13882 9.19505 5.20454 9.26782 5.25305C9.67658 5.52599 10.1396 5.70722 10.625 5.78427V9.06104H11.6875V5.78427C12.1729 5.70722 12.6359 5.52599 13.0447 5.25305Z" fill="black"/>
<path d="M22.8436 2.68604C22.3264 2.68607 21.827 2.87473 21.4389 3.21665C21.0508 3.55858 20.8007 4.0303 20.7356 4.5434C20.6704 5.0565 20.7946 5.57576 21.0849 6.00384C21.3752 6.43193 21.8116 6.73946 22.3124 6.86879V9.06104H23.3749V6.86879C23.8757 6.73946 24.3121 6.43193 24.6024 6.00384C24.8927 5.57576 25.0169 5.0565 24.9517 4.5434C24.8865 4.0303 24.6365 3.55858 24.2484 3.21665C23.8603 2.87473 23.3609 2.68607 22.8436 2.68604ZM22.8436 5.87354C22.6335 5.87354 22.4281 5.81122 22.2533 5.69447C22.0786 5.57772 21.9424 5.41178 21.862 5.21764C21.7816 5.02349 21.7606 4.80986 21.8016 4.60375C21.8425 4.39765 21.9437 4.20833 22.0923 4.05973C22.2409 3.91114 22.4302 3.80995 22.6364 3.76895C22.8425 3.72795 23.0561 3.74899 23.2502 3.82941C23.4444 3.90983 23.6103 4.04601 23.7271 4.22074C23.8438 4.39547 23.9061 4.60089 23.9061 4.81104C23.9058 5.09273 23.7938 5.36279 23.5946 5.56198C23.3954 5.76117 23.1253 5.87321 22.8436 5.87354Z" fill="black"/>
</g></symbol><symbol id="right" viewBox="0 0 11 19"><g fill="none">
<path d="M2.80324 18.079L10.5492 10.333C11.1503 9.72883 11.1503 8.75289 10.5492 8.14867L2.80324 0.402734C2.22387 -0.0945317 1.36715 -0.0945317 0.787776 0.402734C0.138636 0.958906 0.0627755 1.93797 0.618947 2.58711L7.26488 9.23313L0.618868 15.8946C0.0177739 16.4988 0.0177738 17.4748 0.618868 18.079C1.22309 18.6801 2.1991 18.6801 2.80324 18.079Z" fill="black"/>
</g></symbol><symbol id="search" viewBox="0 0 21 21"><g fill="none">
<ellipse cx="9.76663" cy="9.63009" rx="8.98856" ry="8.88424" stroke-width="1.5" stroke-linecap="round" stroke-linejoin="round"/>
<path d="M16.0184 16.2708L19.5424 19.7448" stroke-width="1.5" stroke-linecap="round" stroke-linejoin="round"/>
</g></symbol><symbol id="star" viewBox="0 0 16 17"><g fill="none">
<g clip-path="url(#clip0_20162_248)">
<path d="M-0.237422 6.1941C-0.18246 6.02438 -0.0362377 5.9007 0.139802 5.87507L5.08522 5.15429L7.29693 0.659718C7.37564 0.499718 7.53812 0.398438 7.716 0.398438C7.89391 0.398438 8.05637 0.499718 8.1351 0.659718L10.3469 5.15429L15.2922 5.87507C15.4682 5.9007 15.6145 6.02438 15.6695 6.19407C15.7245 6.36379 15.6786 6.55007 15.5512 6.6746L11.9728 10.1732L12.8175 15.1132C12.8475 15.2891 12.7755 15.4668 12.6315 15.5717C12.5501 15.631 12.4537 15.6612 12.3568 15.6612C12.2824 15.6612 12.2077 15.6434 12.1394 15.6073L7.71603 13.2749L3.29288 15.6073C3.13538 15.6903 2.9446 15.6765 2.80068 15.5717C2.65677 15.4668 2.58464 15.289 2.61471 15.1132L3.4596 10.1732L-0.119179 6.67457C-0.246551 6.55007 -0.292446 6.36379 -0.237422 6.1941Z" fill="black"/>
</g>

</g></symbol><symbol id="telegram" viewBox="0 0 17 16">
<path d="M10.318 14.3001C10.0587 14.3001 9.81927 14.1616 9.70234 13.9406L7.66076 10.0822C7.54864 9.87034 7.5679 9.61684 7.71028 9.42119L11.0058 5.20009L6.53816 8.31359C6.33112 8.44879 6.06285 8.46569 5.83861 8.36039L1.75613 6.43184C1.51125 6.31549 1.36199 6.07304 1.37712 5.81434C1.39156 5.55564 1.56835 5.32944 1.82561 5.24039L14.895 0.690388C15.1461 0.603938 15.4288 0.660488 15.6193 0.840538C15.8092 1.01929 15.8711 1.28709 15.7782 1.52499L10.9632 13.875C10.8683 14.1181 10.6296 14.2851 10.3558 14.2988C10.3434 14.2994 10.3304 14.3001 10.318 14.3001Z"/>
</symbol><symbol id="time" viewBox="0 0 20 21"><g fill="none">
<path d="M10.5748 1.56994V0.611111C10.5748 0.449034 10.5104 0.293596 10.3958 0.17899C10.2812 0.0643848 10.1257 0 9.96367 0C9.80159 0 9.64615 0.0643848 9.53155 0.17899C9.41694 0.293596 9.35256 0.449034 9.35256 0.611111V1.57544C4.55045 1.90911 0.744446 5.91953 0.744446 10.8051C0.744446 15.9075 4.89664 20.0597 10 20.0597C15.1034 20.0597 19.2556 15.9075 19.2556 10.8051C19.2556 5.89508 15.4114 1.86786 10.5748 1.56994ZM10 18.8375C5.57039 18.8375 1.96667 15.2338 1.96667 10.8051C1.96667 6.37572 5.57039 2.77231 10 2.77231C14.4297 2.77231 18.0334 6.37572 18.0334 10.8051C18.0334 15.2338 14.4297 18.8375 10 18.8375Z" fill="black"/>
<path d="M6.86293 16.3515C4.86796 15.22 3.62863 13.0942 3.62863 10.8047C3.62863 10.6354 3.49204 10.4991 3.32307 10.4991C3.1541 10.4991 3.01752 10.6354 3.01752 10.8047C3.01752 13.3139 4.37571 15.6432 6.56166 16.8834C6.6322 16.9234 6.71572 16.9337 6.79386 16.912C6.87199 16.8904 6.93833 16.8386 6.97828 16.7681C7.01823 16.6975 7.02852 16.614 7.00689 16.5359C6.98526 16.4577 6.93348 16.3914 6.86293 16.3515Z" fill="black"/>
<path d="M8.52923 17.1897C8.41091 17.1589 8.29343 17.1248 8.17693 17.0877C8.10021 17.0647 8.01754 17.0728 7.94672 17.1101C7.87589 17.1475 7.82257 17.2112 7.79822 17.2875C7.77387 17.3638 7.78044 17.4466 7.81653 17.5181C7.85261 17.5896 7.91531 17.644 7.99115 17.6697C8.11826 17.7107 8.24598 17.7474 8.37646 17.7807C8.4549 17.8009 8.53817 17.7892 8.60796 17.748C8.67775 17.7069 8.72835 17.6397 8.74862 17.5613C8.75868 17.5225 8.76098 17.4821 8.75539 17.4424C8.7498 17.4027 8.73643 17.3645 8.71605 17.33C8.69567 17.2954 8.66868 17.2653 8.63662 17.2412C8.60456 17.2172 8.56807 17.1997 8.52923 17.1897Z" fill="black"/>
<path d="M17.8854 4.75778C18.0002 4.87221 18.1557 4.93636 18.3177 4.93613C18.4798 4.9359 18.6351 4.87131 18.7495 4.75656C18.864 4.64181 18.9281 4.4863 18.9279 4.32425C18.9277 4.1622 18.8631 4.00687 18.7483 3.89245L17.1616 2.30967C17.1048 2.25295 17.0374 2.20798 16.9632 2.17734C16.889 2.1467 16.8095 2.13099 16.7293 2.1311C16.649 2.13122 16.5695 2.14716 16.4955 2.17801C16.4214 2.20886 16.3541 2.25401 16.2975 2.31089C16.1831 2.4257 16.119 2.58118 16.1193 2.7432C16.1195 2.90522 16.184 3.06053 16.2987 3.175L17.8854 4.75778Z" fill="black"/>
<path d="M10.5746 10.6911V5.80557C10.5746 5.64349 10.5102 5.48805 10.3956 5.37345C10.281 5.25884 10.1255 5.19446 9.96347 5.19446C9.80139 5.19446 9.64595 5.25884 9.53135 5.37345C9.41674 5.48805 9.35236 5.64349 9.35236 5.80557V10.9551C9.35236 11.1235 9.44005 11.2839 9.56227 11.3991L11.3507 13.0705C11.4689 13.1817 11.6196 13.2373 11.7702 13.2373C11.8521 13.2374 11.933 13.2204 12.0079 13.1874C12.0828 13.1543 12.1499 13.106 12.205 13.0454C12.4375 12.7997 12.4168 12.4132 12.1714 12.1816L10.5746 10.6911Z" fill="black"/>
</g></symbol><symbol id="timer" viewBox="0 0 34 35"><g fill="none">
<g clip-path="url(#clip0_20162_176)">
<path d="M31.7543 12.911L32.7503 11.915C33.0383 11.6272 33.1969 11.2443 33.1969 10.8372C33.1969 10.4301 33.0383 10.0472 32.7504 9.75936L31.6096 8.61857C31.3217 8.3307 30.9389 8.17212 30.5318 8.17212C30.1246 8.17212 29.7418 8.3307 29.454 8.61857L28.4579 9.6146C27.1434 8.70915 25.6517 8.04349 24.046 7.68138V6.20922H24.6521C25.4727 6.20922 26.1403 5.54158 26.1403 4.721V2.65059C26.1403 1.82994 25.4727 1.16229 24.6521 1.16229H17.8004C16.9798 1.16229 16.3122 1.82994 16.3122 2.65059V4.72093C16.3122 5.54151 16.9798 6.20916 17.8004 6.20916H18.4064V7.68543C16.8081 8.04854 15.3231 8.71267 14.0137 9.61453L13.0177 8.61851C12.7299 8.33063 12.347 8.17206 11.94 8.17206C11.5327 8.17206 11.15 8.33063 10.8621 8.61851L9.72132 9.7593C9.12706 10.3536 9.12706 11.3206 9.72132 11.915L9.8979 12.0915H5.19077C4.82407 12.0915 4.52671 12.3888 4.52671 12.7556C4.52671 13.1224 4.82407 13.4197 5.19077 13.4197H10.3845C9.88966 14.2166 9.48 15.0715 9.16863 15.9721H0.664061C0.297367 15.9721 0 16.2694 0 16.6362C0 17.0029 0.297367 17.3002 0.664061 17.3002H8.78898C8.60165 18.1239 8.4942 18.9775 8.47521 19.8527H4.24999C3.8833 19.8527 3.58593 20.15 3.58593 20.5168C3.58593 20.8835 3.8833 21.1808 4.24999 21.1808H8.51492C8.58671 22.0596 8.74801 22.9134 8.98946 23.7333H3.32031C2.95361 23.7333 2.65624 24.0306 2.65624 24.3973C2.65624 24.7641 2.95361 25.0614 3.32031 25.0614H9.46181C11.3938 29.6598 15.9436 32.8973 21.2358 32.8973C28.274 32.8973 34 27.1713 34 20.1331C34 17.4544 33.1699 14.9662 31.7543 12.911ZM30.3931 9.55769C30.4406 9.51021 30.4947 9.50025 30.5318 9.50025C30.5689 9.50025 30.623 9.51021 30.6705 9.55769L31.8113 10.6985C31.8588 10.746 31.8688 10.8001 31.8688 10.8372C31.8688 10.8743 31.8588 10.9284 31.8112 10.9759L30.9382 11.849C30.5031 11.3402 30.0288 10.8659 29.52 10.4308L30.3931 9.55769ZM17.6403 4.721V2.65059C17.6403 2.56227 17.7122 2.49041 17.8004 2.49041H24.6521C24.7403 2.49041 24.8122 2.56227 24.8122 2.65059V4.72093C24.8122 4.80925 24.7403 4.88104 24.6521 4.88104H23.382H19.0704H17.8004C17.7122 4.8811 17.6403 4.80925 17.6403 4.721ZM19.7345 6.20922H22.7179V7.45547C22.2315 7.39896 21.7372 7.36894 21.2359 7.36894C20.7279 7.36894 20.2272 7.39969 19.7346 7.45766L19.7345 6.20922ZM10.6604 10.6984L11.8012 9.55762C11.8486 9.51014 11.9028 9.50018 11.9399 9.50018C11.9769 9.50018 12.0311 9.51014 12.0786 9.55762L12.9516 10.4307C12.4428 10.8658 11.9686 11.3401 11.5335 11.8489L10.6604 10.9759C10.5839 10.8994 10.5839 10.7749 10.6604 10.6984ZM21.2358 31.5691C14.93 31.5691 9.79975 26.4389 9.79975 20.1331C9.79975 13.8272 14.93 8.697 21.2358 8.697C27.5417 8.697 32.6719 13.8272 32.6719 20.1331C32.6719 26.4389 27.5417 31.5691 21.2358 31.5691Z" fill="black"/>
<path d="M25.6188 14.8109L22.4797 17.95C22.1126 17.74 21.6881 17.6193 21.2358 17.6193C19.8497 17.6193 18.722 18.7469 18.722 20.1331C18.722 21.5192 19.8497 22.6468 21.2358 22.6468C22.6219 22.6468 23.7495 21.5192 23.7495 20.1331C23.7495 19.6807 23.6288 19.2562 23.4188 18.8892L26.5579 15.7501C26.8172 15.4907 26.8172 15.0703 26.5579 14.8109C26.2985 14.5516 25.8782 14.5516 25.6188 14.8109ZM21.2358 21.3188C20.582 21.3188 20.0502 20.7869 20.0502 20.1331C20.0502 19.4794 20.5821 18.9475 21.2358 18.9475C21.8895 18.9475 22.4214 19.4794 22.4214 20.1331C22.4214 20.7869 21.8896 21.3188 21.2358 21.3188Z" fill="black"/>
<path d="M21.2361 11.5234C21.4107 11.5234 21.5821 11.4524 21.7055 11.3289C21.829 11.2054 21.9001 11.034 21.9001 10.8594C21.9001 10.6847 21.8291 10.5134 21.7055 10.3899C21.5821 10.2664 21.4107 10.1953 21.2361 10.1953C21.0614 10.1953 20.8901 10.2664 20.7666 10.3899C20.6431 10.5134 20.572 10.6847 20.572 10.8594C20.572 11.0347 20.643 11.2054 20.7666 11.3289C20.8902 11.4524 21.0614 11.5234 21.2361 11.5234Z" fill="black"/>
<path d="M21.2361 28.7426C21.0614 28.7426 20.8901 28.8136 20.7666 28.9371C20.6431 29.0606 20.572 29.232 20.572 29.4066C20.572 29.5819 20.643 29.7526 20.7666 29.8761C20.8901 30.0003 21.0614 30.0707 21.2361 30.0707C21.4107 30.0707 21.5821 30.0003 21.7055 29.8761C21.829 29.7526 21.9001 29.5813 21.9001 29.4066C21.9001 29.232 21.8291 29.0606 21.7055 28.9371C21.5821 28.8136 21.4107 28.7426 21.2361 28.7426Z" fill="black"/>
<path d="M14.6784 12.9113C14.5038 12.9113 14.3324 12.9823 14.2089 13.1058C14.0854 13.2293 14.0143 13.4007 14.0143 13.5753C14.0143 13.7506 14.0853 13.9213 14.2089 14.0455C14.3324 14.169 14.5038 14.2394 14.6784 14.2394C14.8531 14.2394 15.0244 14.169 15.1478 14.0455C15.2713 13.9213 15.3425 13.7506 15.3425 13.5753C15.3425 13.4007 15.2714 13.23 15.1478 13.1058C15.0244 12.9823 14.8531 12.9113 14.6784 12.9113Z" fill="black"/>
<path d="M27.7937 26.0265C27.6183 26.0265 27.4477 26.0975 27.3235 26.2211C27.2 26.3446 27.1296 26.5159 27.1296 26.6906C27.1296 26.8652 27.2 27.0365 27.3235 27.16C27.4477 27.2836 27.6183 27.3546 27.7937 27.3546C27.9683 27.3546 28.1397 27.2836 28.2631 27.16C28.3866 27.0365 28.4578 26.8652 28.4578 26.6906C28.4578 26.5159 28.3867 26.3446 28.2631 26.2211C28.1397 26.0975 27.9683 26.0265 27.7937 26.0265Z" fill="black"/>
<path d="M14.6784 26.0265C14.5038 26.0265 14.3324 26.0975 14.2089 26.2211C14.0854 26.3446 14.0143 26.5159 14.0143 26.6906C14.0143 26.8652 14.0853 27.0365 14.2089 27.16C14.3325 27.2836 14.5038 27.3546 14.6784 27.3546C14.8531 27.3546 15.0244 27.2836 15.1478 27.16C15.2713 27.0365 15.3425 26.8652 15.3425 26.6906C15.3425 26.5159 15.2714 26.3446 15.1478 26.2211C15.0244 26.0975 14.8531 26.0265 14.6784 26.0265Z" fill="black"/>
<path d="M11.9625 19.4689C11.7872 19.4689 11.6165 19.5399 11.493 19.6634C11.3689 19.787 11.2984 19.9583 11.2984 20.1329C11.2984 20.3076 11.3689 20.4789 11.493 20.6024C11.6165 20.7266 11.7872 20.797 11.9625 20.797C12.1371 20.797 12.3084 20.7266 12.432 20.6024C12.5554 20.4789 12.6265 20.3076 12.6265 20.1329C12.6265 19.9583 12.5555 19.787 12.432 19.6634C12.3084 19.5399 12.1371 19.4689 11.9625 19.4689Z" fill="black"/>
<path d="M30.9791 19.6634C30.8556 19.5399 30.6842 19.4689 30.5096 19.4689C30.3343 19.4689 30.1636 19.5399 30.0402 19.6634C29.9166 19.787 29.8455 19.9583 29.8455 20.1329C29.8455 20.3082 29.9166 20.4789 30.0402 20.6024C30.1636 20.7259 30.3349 20.797 30.5096 20.797C30.6842 20.797 30.8556 20.7259 30.9791 20.6024C31.1026 20.4789 31.1736 20.3076 31.1736 20.1329C31.1736 19.9583 31.1026 19.787 30.9791 19.6634Z" fill="black"/>
<path d="M0.664062 23.7335C0.489414 23.7335 0.318086 23.8039 0.19457 23.9274C0.0710547 24.0516 0 24.2223 0 24.3976C0 24.5722 0.0709883 24.7429 0.19457 24.8671C0.318086 24.9906 0.489414 25.0616 0.664062 25.0616C0.838711 25.0616 1.01004 24.9906 1.13349 24.8671C1.257 24.7436 1.32812 24.5722 1.32812 24.3976C1.32812 24.2223 1.25707 24.0509 1.13349 23.9274C1.01004 23.8039 0.838711 23.7335 0.664062 23.7335Z" fill="black"/>
<path d="M30.3142 18.1168C30.6656 18.012 30.8657 17.6422 30.761 17.2907C30.2915 15.7154 29.425 14.2658 28.2553 13.0985C27.0853 11.9311 25.6336 11.0677 24.057 10.6018C23.7054 10.4978 23.3359 10.6986 23.232 11.0503C23.128 11.402 23.3288 11.7714 23.6806 11.8754C26.4825 12.7035 28.6536 14.8698 29.4882 17.67C29.574 17.9582 29.8382 18.1445 30.1243 18.1445C30.187 18.1446 30.2509 18.1356 30.3142 18.1168Z" fill="black"/>
</g>

</g></symbol><symbol id="email" viewBox="0 0 24 24">
<g id="Iconly/Light/Message">
<g id="Message">
<path id="Stroke 1" d="M17.9026 8.85107L13.4593 12.4641C12.6198 13.1301 11.4387 13.1301 10.5992 12.4641L6.11841 8.85107" stroke-width="1.5" stroke-linecap="round" stroke-linejoin="round"/>
<path id="Stroke 3" fill-rule="evenodd" clip-rule="evenodd" d="M16.9089 21C19.9502 21.0084 22 18.5095 22 15.4384V8.57001C22 5.49883 19.9502 3 16.9089 3H7.09114C4.04979 3 2 5.49883 2 8.57001V15.4384C2 18.5095 4.04979 21.0084 7.09114 21H16.9089Z" stroke-width="1.5" stroke-linecap="round" stroke-linejoin="round"/>
</g>
</g>
</symbol><symbol id="facebook" viewBox="0 0 10 21">
<path d="M2.54678 20.5263V10.8948H0V7.42695H2.54678V4.46499C2.54678 2.13745 4.05118 0 7.51762 0C8.92113 0 9.95896 0.13455 9.95896 0.13455L9.87718 3.3729C9.87718 3.3729 8.81876 3.3626 7.66377 3.3626C6.41371 3.3626 6.21344 3.93867 6.21344 4.89481V7.42695H9.97655L9.81281 10.8948H6.21344V20.5263H2.54678Z"/>
</symbol><symbol id="instagram" viewBox="0 0 20 20">
<path d="M9.74756 6.49862C7.95723 6.49862 6.49618 7.95967 6.49618 9.75C6.49618 11.5403 7.95723 13.0014 9.74756 13.0014C11.5379 13.0014 12.9989 11.5403 12.9989 9.75C12.9989 7.95967 11.5379 6.49862 9.74756 6.49862ZM19.4993 9.75C19.4993 8.40359 19.5115 7.06938 19.4359 5.72541C19.3602 4.16435 19.0041 2.77891 17.8626 1.63739C16.7186 0.493433 15.3356 0.139757 13.7746 0.0641433C12.4282 -0.0114703 11.094 0.00072551 9.75 0.00072551C8.40359 0.00072551 7.06938 -0.0114703 5.72541 0.0641433C4.16435 0.139757 2.77892 0.495872 1.63739 1.63739C0.493433 2.78135 0.139757 4.16435 0.0641433 5.72541C-0.0114703 7.07182 0.00072551 8.40603 0.00072551 9.75C0.00072551 11.094 -0.0114703 12.4306 0.0641433 13.7746C0.139757 15.3356 0.495873 16.7211 1.63739 17.8626C2.78135 19.0066 4.16435 19.3602 5.72541 19.4359C7.07182 19.5115 8.40603 19.4993 9.75 19.4993C11.0964 19.4993 12.4306 19.5115 13.7746 19.4359C15.3356 19.3602 16.7211 19.0041 17.8626 17.8626C19.0066 16.7186 19.3602 15.3356 19.4359 13.7746C19.5139 12.4306 19.4993 11.0964 19.4993 9.75ZM9.74756 14.7527C6.97913 14.7527 4.74487 12.5184 4.74487 9.75C4.74487 6.98157 6.97913 4.74731 9.74756 4.74731C12.516 4.74731 14.7503 6.98157 14.7503 9.75C14.7503 12.5184 12.516 14.7527 9.74756 14.7527ZM14.9551 5.71077C14.3088 5.71077 13.7868 5.18879 13.7868 4.54242C13.7868 3.89604 14.3088 3.37407 14.9551 3.37407C15.6015 3.37407 16.1235 3.89604 16.1235 4.54242C16.1237 4.6959 16.0936 4.84792 16.035 4.98976C15.9763 5.13159 15.8903 5.26047 15.7817 5.369C15.6732 5.47753 15.5443 5.56358 15.4025 5.62223C15.2606 5.68087 15.1086 5.71096 14.9551 5.71077Z"/>
</symbol><symbol id="location" viewBox="0 0 24 24">
<g id="Iconly/Light/Location">
<g id="Location">
<path id="Stroke 1" fill-rule="evenodd" clip-rule="evenodd" d="M14.5 10.5005C14.5 9.11924 13.3808 8 12.0005 8C10.6192 8 9.5 9.11924 9.5 10.5005C9.5 11.8808 10.6192 13 12.0005 13C13.3808 13 14.5 11.8808 14.5 10.5005Z" stroke-width="1.5" stroke-linecap="round" stroke-linejoin="round"/>
<path id="Stroke 3" fill-rule="evenodd" clip-rule="evenodd" d="M11.9995 21C10.801 21 4.5 15.8984 4.5 10.5633C4.5 6.38664 7.8571 3 11.9995 3C16.1419 3 19.5 6.38664 19.5 10.5633C19.5 15.8984 13.198 21 11.9995 21Z" stroke-width="1.5" stroke-linecap="round" stroke-linejoin="round"/>
</g>
</g>
</symbol><symbol id="tel" viewBox="0 0 24 24">
<g id="Iconly/Light/Calling">
<g id="Calling">
<path id="Stroke 1" d="M14.353 2.5C18.054 2.911 20.978 5.831 21.393 9.532" stroke-width="1.5" stroke-linecap="round" stroke-linejoin="round"/>
<path id="Stroke 3" d="M14.353 6.04297C16.124 6.38697 17.508 7.77197 17.853 9.54297" stroke-width="1.5" stroke-linecap="round" stroke-linejoin="round"/>
<path id="Stroke 5" fill-rule="evenodd" clip-rule="evenodd" d="M11.0315 12.4724C15.0205 16.4604 15.9254 11.8467 18.4653 14.3848C20.9138 16.8328 22.3222 17.3232 19.2188 20.4247C18.8302 20.737 16.3613 24.4943 7.68447 15.8197C-0.993406 7.144 2.76157 4.67244 3.07394 4.28395C6.18377 1.17385 6.66682 2.58938 9.11539 5.03733C11.6541 7.5765 7.04254 8.48441 11.0315 12.4724Z" stroke-width="1.5" stroke-linecap="round" stroke-linejoin="round"/>
</g>
</g>
</symbol><symbol id="twitter" viewBox="0 0 21 17">
<path d="M20.5263 1.98086C19.7715 2.30648 18.95 2.54082 18.1039 2.6321C18.9824 2.11021 19.6402 1.28571 19.954 0.313295C19.1297 0.80367 18.2266 1.14753 17.2849 1.32962C16.8913 0.908848 16.4153 0.573641 15.8865 0.344888C15.3577 0.116135 14.7874 -0.00126247 14.2113 1.02382e-05C11.8802 1.02382e-05 10.0054 1.88959 10.0054 4.20839C10.0054 4.534 10.0448 4.85962 10.109 5.17291C6.61845 4.99036 3.50534 3.3228 1.43568 0.769655C1.05857 1.41378 0.86095 2.14718 0.863383 2.89358C0.863383 4.35393 1.60589 5.6416 2.73816 6.39891C2.0709 6.37263 1.41926 6.18923 0.836248 5.86362V5.91542C0.836248 7.9604 2.2818 9.6551 4.20838 10.0449C3.84664 10.1388 3.47452 10.1869 3.10078 10.1879C2.82696 10.1879 2.56795 10.1608 2.30647 10.1238C2.8393 11.7914 4.39092 13.0026 6.23856 13.042C4.79301 14.1743 2.98237 14.8403 1.01633 14.8403C0.663572 14.8403 0.337953 14.828 0 14.7885C1.86491 15.9849 4.07763 16.6756 6.46057 16.6756C14.1965 16.6756 18.4295 10.2669 18.4295 4.70422C18.4295 4.52167 18.4295 4.33913 18.4172 4.15658C19.2362 3.55715 19.954 2.81464 20.5263 1.98086Z"/>
</symbol><symbol id="asian" viewBox="0 0 44 44">
<g clip-path="url(#clip0_0_199)">
<g clip-path="url(#clip1_0_199)">
<path d="M15.1315 13.5667H17.2563C17.8077 13.5667 18.2562 14.0152 18.2562 14.5666V16.0315C18.2562 16.3875 18.5448 16.676 18.9007 16.676C19.2567 16.676 19.5453 16.3875 19.5453 16.0315V14.5666C19.5453 13.3044 18.5184 12.2777 17.2563 12.2777H15.1315C14.5894 12.2777 14.1484 11.8366 14.1484 11.2945C14.1484 10.7524 14.5894 10.3115 15.1315 10.3115H19.843C21.0959 10.3115 22.1151 9.2922 22.1151 8.03931C22.1151 6.78643 21.0958 5.76721 19.843 5.76721H16.0738C15.7179 5.76721 15.4293 6.05579 15.4293 6.41174C15.4293 6.7677 15.7179 7.05627 16.0738 7.05627H19.843C20.3851 7.05627 20.8261 7.49731 20.8261 8.03931C20.8261 8.58141 20.385 9.02244 19.843 9.02244H15.1315C13.8786 9.02244 12.8593 10.0417 12.8593 11.2945C12.8593 12.5474 13.8786 13.5667 15.1315 13.5667Z"/>
<path d="M7.38858 17.8924H9.49714C10.0415 17.8924 10.4844 18.3354 10.4844 18.8798V20.3335C10.4844 20.6895 10.773 20.978 11.1289 20.978C11.4849 20.978 11.7735 20.6895 11.7735 20.3335V18.8798C11.7735 17.6246 10.7523 16.6034 9.49714 16.6034H7.38858C6.85336 16.6034 6.418 16.1679 6.418 15.6328C6.418 15.0977 6.85345 14.6622 7.38858 14.6622H9.85387C10.2098 14.6622 10.4984 14.3737 10.4984 14.0177C10.4984 13.6617 10.2098 13.3732 9.85387 13.3732H7.38858C6.14257 13.3732 5.12894 14.3868 5.12894 15.6328C5.12894 16.8788 6.14257 17.8924 7.38858 17.8924Z"/>
<path d="M25.6523 26.8125C26.0083 26.8125 26.2969 26.5239 26.2969 26.168C26.2969 25.812 26.0083 25.5234 25.6523 25.5234C25.2964 25.5234 25.0078 25.812 25.0078 26.168C25.0078 26.5239 25.2964 26.8125 25.6523 26.8125Z"/>
<path d="M28.832 28.2734C29.188 28.2734 29.4766 27.9849 29.4766 27.6289C29.4766 27.2729 29.188 26.9844 28.832 26.9844C28.4761 26.9844 28.1875 27.2729 28.1875 27.6289C28.1875 27.9849 28.4761 28.2734 28.832 28.2734Z"/>
<path d="M30.7227 30.5078C31.0786 30.5078 31.3672 30.2192 31.3672 29.8633C31.3672 29.5073 31.0786 29.2188 30.7227 29.2188C30.3667 29.2188 30.0781 29.5073 30.0781 29.8633C30.0781 30.2192 30.3667 30.5078 30.7227 30.5078Z"/>
<path d="M28.0586 25.2656C28.4146 25.2656 28.7031 24.9771 28.7031 24.6211C28.7031 24.2651 28.4146 23.9766 28.0586 23.9766C27.7026 23.9766 27.4141 24.2651 27.4141 24.6211C27.4141 24.9771 27.7026 25.2656 28.0586 25.2656Z"/>
<path d="M25.9102 30.9375C26.2661 30.9375 26.5547 30.6489 26.5547 30.293C26.5547 29.937 26.2661 29.6484 25.9102 29.6484C25.5542 29.6484 25.2656 29.937 25.2656 30.293C25.2656 30.6489 25.5542 30.9375 25.9102 30.9375Z"/>
<path d="M42.9114 22.8109H41.083L41.9867 20.9433C43.1331 20.715 44 19.7014 44 18.4889C44 17.2453 43.0882 16.2111 41.8981 16.0186C40.5827 13.6495 38.0131 11.8701 34.8968 11.1599V11.1107C34.8968 10.7548 34.6083 10.4662 34.2523 10.4662C33.9573 10.4662 33.7091 10.6646 33.6326 10.9351C33.2401 10.8845 32.8407 10.8517 32.4363 10.8349C32.333 10.6172 32.1116 10.4662 31.8545 10.4662C31.5973 10.4662 31.376 10.6172 31.2726 10.8349C30.8681 10.8517 30.4687 10.8845 30.0762 10.9352C29.9998 10.6647 29.7516 10.4662 29.4565 10.4662C29.1005 10.4662 28.812 10.7548 28.812 11.1107V11.1599C25.6958 11.8701 23.1261 13.6496 21.8108 16.0186C20.6207 16.2111 19.709 17.2453 19.709 18.4889C19.709 18.5615 19.7123 18.6333 19.7184 18.7043C16.7427 18.981 14.0692 20.2242 12.0633 22.0896H8.01359C7.73755 22.0896 7.4904 22.2134 7.32316 22.408H5.43039C5.12033 21.6246 4.35067 21.071 3.47342 21.071C2.31344 21.071 1.36976 22.0146 1.36976 23.1746C1.36976 23.2737 1.37758 23.3717 1.39124 23.4683C0.580851 23.7608 0 24.5375 0 25.4474C0 25.8514 0.114727 26.2398 0.325445 26.5722C0.114727 26.9047 0 27.293 0 27.697C0 28.857 0.94368 29.8007 2.10366 29.8007C2.98091 29.8007 3.75057 29.2471 4.06063 28.4636H5.76537C5.84358 28.7509 6.0592 28.988 6.35087 29.087L8.37177 29.7733C8.35974 29.9815 8.35321 30.1911 8.35321 30.4021C8.35321 30.6009 8.35888 30.7988 8.36945 30.9961C8.05346 31.0723 7.75852 31.2031 7.49607 31.3792C7.06398 31.0894 6.54491 30.9197 5.98666 30.9197C4.48791 30.9197 3.26863 32.139 3.26863 33.6378C3.26863 33.6607 3.27035 33.6833 3.27095 33.7061H2.51685C2.09129 33.7061 1.71411 33.9452 1.53244 34.3299C1.35077 34.7147 1.40585 35.1578 1.6763 35.4864L3.6098 37.8359C3.81743 38.088 4.12371 38.2327 4.45036 38.2327H31.7103C32.0663 38.2327 32.3548 37.9441 32.3548 37.5882C32.3548 37.2322 32.0663 36.9436 31.7103 36.9436H4.54498L2.94147 34.9952H42.4853L40.8818 36.9436H34.7181C34.362 36.9436 34.0735 37.2322 34.0735 37.5882C34.0735 37.9441 34.362 38.2327 34.7181 38.2327H40.9764C41.3031 38.2327 41.6095 38.088 41.8169 37.8358L43.7504 35.4865C44.0207 35.1578 44.0759 34.7147 43.8942 34.3299C43.7126 33.9451 43.3354 33.7061 42.9099 33.7061H42.2716C42.905 32.61 43.143 31.311 42.9119 30.0346C42.8639 29.7702 42.657 29.5631 42.3925 29.5153C40.6466 29.1992 38.857 29.758 37.6048 31.0101C37.5283 31.0865 37.4554 31.1658 37.3842 31.2462C37.0148 31.0462 36.594 30.9301 36.1474 30.9214V29.695H36.835C37.925 29.695 38.8117 28.8083 38.8117 27.7183V26.8531H42.9114C43.5116 26.8531 44 26.3647 44 25.7645V23.8995C44 23.2992 43.5116 22.8109 42.9114 22.8109ZM6.29054 33.7062H4.56002C4.5589 33.6835 4.5577 33.6608 4.5577 33.6379C4.5577 32.8499 5.1987 32.2089 5.98666 32.2089C6.21079 32.2089 6.42254 32.2614 6.61126 32.354C6.40535 32.7365 6.28813 33.1737 6.28813 33.6379C6.28822 33.6608 6.28994 33.6833 6.29054 33.7062ZM38.5163 31.9216C39.3595 31.0786 40.5223 30.6483 41.7005 30.7267C41.7727 31.812 41.412 32.8847 40.6953 33.7062H39.6325L40.5131 32.8256C40.7648 32.5739 40.7648 32.1658 40.5131 31.9141C40.2613 31.6624 39.8533 31.6624 39.6015 31.9141L38.6882 32.8275C38.6075 32.5698 38.4893 32.3286 38.3402 32.1101C38.3969 32.0456 38.4553 31.9826 38.5163 31.9216ZM25.5032 13.9422C26.4787 13.2886 27.6054 12.7984 28.812 12.4901V13.1534C28.812 13.5093 29.1005 13.7979 29.4565 13.7979C29.8126 13.7979 30.1011 13.5093 30.1011 13.1534V12.2345C30.4665 12.1825 30.8368 12.1482 31.2099 12.129V13.1534C31.2099 13.5093 31.4984 13.7979 31.8545 13.7979C32.2105 13.7979 32.499 13.5093 32.499 13.1534V12.129C32.8721 12.1482 33.2424 12.1826 33.6077 12.2345V13.1534C33.6077 13.5093 33.8962 13.7979 34.2523 13.7979C34.6083 13.7979 34.8968 13.5093 34.8968 13.1534V12.4901C36.1035 12.7984 37.2302 13.2886 38.2057 13.9423C39.1561 14.579 39.9304 15.3479 40.4945 16.1982C40.2768 16.294 40.0729 16.42 39.89 16.5732C39.4452 16.2005 38.8773 15.9861 38.2829 15.9861C37.6885 15.9861 37.1205 16.2005 36.6758 16.5732C36.231 16.2005 35.663 15.9861 35.0687 15.9861C34.4743 15.9861 33.9063 16.2005 33.4616 16.5732C33.0168 16.2005 32.4488 15.9861 31.8545 15.9861C31.26 15.9861 30.6921 16.2005 30.2473 16.5732C29.8025 16.2005 29.2346 15.9861 28.6402 15.9861C28.0458 15.9861 27.4778 16.2005 27.0331 16.5732C26.5884 16.2005 26.0204 15.9861 25.426 15.9861C24.8316 15.9861 24.2637 16.2005 23.8189 16.5732C23.6361 16.42 23.4321 16.294 23.2144 16.1982C23.7785 15.3478 24.5528 14.5789 25.5032 13.9422ZM22.2117 17.2751C22.642 17.2751 23.0441 17.5077 23.2612 17.8822C23.3765 18.0809 23.5889 18.2034 23.8188 18.2034C24.0486 18.2034 24.261 18.081 24.3763 17.8823C24.5935 17.5077 24.9957 17.2751 25.4259 17.2751C25.8562 17.2751 26.2584 17.5077 26.4755 17.8822C26.5908 18.0809 26.8031 18.2034 27.033 18.2034C27.2629 18.2034 27.4752 18.081 27.5906 17.8822C27.8077 17.5077 28.2098 17.2751 28.6401 17.2751C29.0703 17.2751 29.4725 17.5077 29.6898 17.8823C29.8051 18.081 30.0175 18.2034 30.2472 18.2034C30.4771 18.2034 30.6895 18.081 30.8048 17.8822C31.0219 17.5077 31.4241 17.2751 31.8544 17.2751C32.2846 17.2751 32.6868 17.5077 32.904 17.8823C33.0192 18.081 33.2317 18.2034 33.4615 18.2034C33.6914 18.2034 33.9037 18.081 34.019 17.8822C34.2361 17.5077 34.6383 17.2751 35.0686 17.2751C35.4988 17.2751 35.901 17.5077 36.1182 17.8823C36.2336 18.081 36.4459 18.2034 36.6757 18.2034C36.9056 18.2034 37.118 18.081 37.2333 17.8822C37.4504 17.5077 37.8525 17.2751 38.2828 17.2751C38.713 17.2751 39.1152 17.5077 39.3325 17.8823C39.4477 18.081 39.6602 18.2034 39.89 18.2034C40.1198 18.2034 40.3322 18.081 40.4475 17.8822C40.6646 17.5077 41.0668 17.2751 41.4971 17.2751C42.1663 17.2751 42.7108 17.8195 42.7108 18.4888C42.7108 19.1581 42.1663 19.7025 41.4971 19.7025C41.0668 19.7025 40.6646 19.4699 40.4475 19.0954C40.3322 18.8967 40.1198 18.7742 39.89 18.7742C39.6602 18.7742 39.4477 18.8966 39.3325 19.0953C39.1152 19.4699 38.713 19.7025 38.2828 19.7025C37.8525 19.7025 37.4504 19.4699 37.2333 19.0954C37.118 18.8967 36.9056 18.7742 36.6757 18.7742C36.4459 18.7742 36.2335 18.8966 36.1182 19.0953C35.901 19.4699 35.4988 19.7025 35.0686 19.7025C34.6383 19.7025 34.2361 19.4699 34.019 19.0954C33.9037 18.8967 33.6914 18.7742 33.4615 18.7742C33.2317 18.7742 33.0192 18.8966 32.904 19.0953C32.6868 19.4699 32.2846 19.7025 31.8544 19.7025C31.4241 19.7025 31.0219 19.4699 30.8048 19.0954C30.6895 18.8967 30.4771 18.7742 30.2472 18.7742C30.0175 18.7742 29.805 18.8966 29.6898 19.0953C29.4725 19.4699 29.0703 19.7025 28.6401 19.7025C28.2098 19.7025 27.8077 19.4699 27.5906 19.0954C27.4752 18.8967 27.2629 18.7742 27.033 18.7742C26.8031 18.7742 26.5908 18.8966 26.4755 19.0954C26.3486 19.3142 26.1583 19.4841 25.9363 19.5879C24.4222 18.9847 22.7569 18.6492 21.0094 18.6458C21.0026 18.5943 20.998 18.5422 20.998 18.4888C20.998 17.8195 21.5424 17.2751 22.2117 17.2751ZM8.39163 23.3786H10.8635C10.6095 23.6949 10.3712 24.0227 10.1518 24.3624H8.39163V23.3786ZM5.7328 27.1746H3.5567C3.22145 27.1746 2.94216 27.4316 2.9144 27.7657C2.87968 28.184 2.52355 28.5116 2.10375 28.5116C1.65455 28.5116 1.28915 28.1462 1.28915 27.697C1.28915 27.4535 1.397 27.2244 1.58512 27.0688C1.7331 26.9463 1.81878 26.7643 1.81878 26.5722C1.81878 26.38 1.7331 26.198 1.58512 26.0755C1.397 25.9199 1.28915 25.691 1.28915 25.4473C1.28915 24.9981 1.65455 24.6327 2.10375 24.6327C2.52355 24.6327 2.87968 24.9603 2.9144 25.3786C2.94216 25.7127 3.22145 25.9697 3.5567 25.9697H5.73289V27.1746H5.7328ZM5.95332 24.6808H4.06063C3.82362 24.082 3.31779 23.6184 2.70093 23.4327C2.67343 23.3505 2.65873 23.2635 2.65873 23.1745C2.65873 22.7253 3.02414 22.3599 3.47334 22.3599C3.89314 22.3599 4.24927 22.6876 4.28407 23.1058C4.31183 23.4399 4.59113 23.697 4.92637 23.697H7.10256V24.3624H6.64383C6.3678 24.3624 6.12055 24.4863 5.95332 24.6808ZM10.433 33.7062H7.5796C7.57848 33.6835 7.57728 33.6608 7.57728 33.6379C7.57728 32.8499 8.21829 32.2089 9.00625 32.2089C9.79421 32.2089 10.4352 32.8499 10.4352 33.6379C10.4353 33.6608 10.434 33.6835 10.433 33.7062ZM30.3116 33.7062H28.0679C28.0668 33.6835 28.0656 33.6608 28.0656 33.6379C28.0656 32.8499 28.7066 32.2089 29.4946 32.2089C29.8885 32.2089 30.2459 32.3692 30.5046 32.6279C30.3791 32.9404 30.3093 33.281 30.3093 33.6379C30.3092 33.6608 30.311 33.6833 30.3116 33.7062ZM29.4946 30.9197C27.9959 30.9197 26.7765 32.139 26.7765 33.6378C26.7765 33.6607 26.7782 33.6833 26.7788 33.7061H11.722C11.7226 33.6832 11.7244 33.6607 11.7244 33.6378C11.7244 32.3649 10.8446 31.294 9.66135 31C9.64915 30.8017 9.64227 30.6024 9.64227 30.4021C9.64227 30.3364 9.64322 30.2709 9.64451 30.2054L16.2366 32.4439C16.6807 32.5948 17.1349 32.6691 17.5847 32.6691C18.4345 32.6691 19.2687 32.4037 19.9891 31.8877C21.0906 31.0983 21.7223 29.8685 21.7223 28.5133C21.7223 28.0288 21.6392 27.5535 21.4753 27.1005C21.3541 26.7658 20.9846 26.5927 20.6498 26.7139C20.3151 26.835 20.142 27.2046 20.2632 27.5393C20.3761 27.8512 20.4334 28.1789 20.4334 28.5132C20.4334 29.4475 19.9978 30.2955 19.2383 30.8396C18.479 31.3838 17.5359 31.5235 16.6512 31.2232L7.02195 27.9534V25.6514H17.5715C17.8948 25.6514 18.2133 25.7056 18.5182 25.8125C18.8543 25.9304 19.222 25.7534 19.3397 25.4173C19.4575 25.0813 19.2805 24.7137 18.9446 24.5959C18.5023 24.4409 18.0403 24.3623 17.5715 24.3623H11.7273C13.7835 21.6855 17.1654 19.9344 20.9831 19.9344C27.2364 19.9344 32.3238 24.6302 32.3238 30.4021C32.3238 30.6083 32.3166 30.8135 32.3036 31.0178C31.9142 31.1257 31.5596 31.3183 31.2609 31.5745C30.7855 31.1668 30.1685 30.9197 29.4946 30.9197ZM34.454 33.7062H31.6006C31.5995 33.6835 31.5983 33.6608 31.5983 33.6379C31.5983 32.8499 32.2393 32.2089 33.0272 32.2089C33.8152 32.2089 34.4563 32.8499 34.4563 33.6379C34.4563 33.6608 34.4551 33.6835 34.454 33.7062ZM34.8583 31.2197C34.7555 31.2725 34.6558 31.3304 34.5611 31.3954C34.2745 31.1988 33.9482 31.0568 33.5974 30.9815C33.6073 30.7892 33.6128 30.5961 33.6128 30.4022C33.6128 30.1646 33.6029 29.9292 33.5878 29.695H34.8583V31.2197ZM37.5226 33.6378C37.5226 33.6607 37.5214 33.6834 37.5203 33.7061H35.743C35.7436 33.6832 35.7454 33.6607 35.7454 33.6378C35.7454 33.181 35.6316 32.7505 35.4317 32.3723C35.6296 32.2679 35.8547 32.2088 36.0937 32.2088C36.8816 32.2088 37.5226 32.8498 37.5226 33.6378ZM37.5226 27.7184C37.5226 28.0976 37.2142 28.406 36.835 28.406H33.4281C33.33 27.8757 33.1959 27.3568 33.0241 26.8531H37.5226V27.7184ZM42.7109 25.564H32.4932C32.2456 25.0557 31.9601 24.5668 31.6404 24.0999H34.375C34.731 24.0999 35.0195 23.8113 35.0195 23.4554C35.0195 23.0994 34.731 22.8109 34.375 22.8109H30.6187C30.0022 22.1339 29.3059 21.5221 28.5421 20.9893C28.5747 20.9906 28.6074 20.9916 28.6401 20.9916C29.2345 20.9916 29.8024 20.7771 30.2472 20.4044C30.692 20.7771 31.26 20.9916 31.8544 20.9916C32.4487 20.9916 33.0167 20.7771 33.4615 20.4044C33.9062 20.7771 34.4743 20.9916 35.0686 20.9916C35.6629 20.9916 36.2309 20.7771 36.6757 20.4044C37.1204 20.7771 37.6885 20.9916 38.2828 20.9916C38.8772 20.9916 39.4451 20.7771 39.89 20.4044C40.105 20.5846 40.3489 20.7274 40.6106 20.8272L39.6508 22.8109H37.3828C37.0268 22.8109 36.7383 23.0994 36.7383 23.4554C36.7383 23.8113 37.0268 24.0999 37.3828 24.0999H42.7109V25.564Z"/>
</g>
</g>

</symbol><symbol id="burgers" viewBox="0 0 44 44">
<g clip-path="url(#clip0_0_161)">
<path d="M44 20.3359C44 18.6467 42.9108 17.2079 41.3982 16.6825C41.1658 11.4417 39.2092 7.41987 35.573 4.71723C32.2543 2.25065 27.6878 1 22 1C16.3122 1 11.7457 2.25065 8.42703 4.71731C4.79084 7.41987 2.83422 11.4418 2.60176 16.6826C1.08917 17.2079 0 18.6467 0 20.3359C0 21.3257 0.374172 22.2293 0.987852 22.9141C0.374172 23.5988 0 24.5024 0 25.4922C0 27.1918 1.10258 28.6378 2.6296 29.1551C3.18252 35.0454 8.18967 39.6719 14.2656 39.6719H29.7344C35.8103 39.6719 40.8175 35.0454 41.3704 29.1551C42.8974 28.6378 44 27.1918 44 25.4922C44 24.5024 43.6258 23.5988 43.0121 22.9141C43.6258 22.2293 44 21.3257 44 20.3359ZM22 3.57812C29.3933 3.57812 38.1513 5.85719 38.8034 16.4688H5.19655C5.84873 5.85719 14.6067 3.57812 22 3.57812ZM3.86719 19.0469H40.1328C40.8436 19.0469 41.4219 19.6251 41.4219 20.3359C41.4219 21.0467 40.8436 21.625 40.1328 21.625H3.86719C3.1564 21.625 2.57812 21.0467 2.57812 20.3359C2.57812 19.6251 3.1564 19.0469 3.86719 19.0469ZM29.7344 37.0938H14.2656C9.68456 37.0938 5.88302 33.7265 5.24958 29.3594H6.44531C7.30709 29.3594 7.57943 29.6525 8.12187 30.2366C8.78857 30.9545 9.70166 31.9375 11.6875 31.9375C13.6874 31.9375 14.5766 30.9444 15.226 30.2193C15.7387 29.6468 15.996 29.3594 16.8438 29.3594C17.6915 29.3594 17.9488 29.6468 18.4615 30.2193C19.1109 30.9444 20.0001 31.9375 22 31.9375C23.9999 31.9375 24.8891 30.9444 25.5385 30.2193C26.0512 29.6468 26.3085 29.3594 27.1562 29.3594C28.004 29.3594 28.2613 29.6468 28.774 30.2193C29.4234 30.9444 30.3126 31.9375 32.3125 31.9375C34.3124 31.9375 35.2016 30.9444 35.851 30.2193C36.3637 29.6468 36.621 29.3594 37.4688 29.3594H38.7504C38.117 33.7265 34.3154 37.0938 29.7344 37.0938ZM40.1328 26.7812H37.4688C35.4689 26.7812 34.5796 27.7743 33.9303 28.4995C33.4176 29.072 33.1603 29.3594 32.3125 29.3594C31.4647 29.3594 31.2074 29.072 30.6947 28.4995C30.0454 27.7743 29.1561 26.7812 27.1562 26.7812C25.1564 26.7812 24.2671 27.7743 23.6178 28.4995C23.1051 29.072 22.8478 29.3594 22 29.3594C21.1522 29.3594 20.8949 29.072 20.3822 28.4995C19.7329 27.7743 18.8436 26.7812 16.8438 26.7812C14.8439 26.7812 13.9546 27.7743 13.3053 28.4995C12.7926 29.072 12.5353 29.3594 11.6875 29.3594C10.8257 29.3594 10.5534 29.0662 10.0109 28.4821C9.34424 27.7643 8.43116 26.7812 6.44531 26.7812H3.86719C3.1564 26.7812 2.57812 26.203 2.57812 25.4922C2.57812 24.7814 3.1564 24.2031 3.86719 24.2031H40.1328C40.8436 24.2031 41.4219 24.7814 41.4219 25.4922C41.4219 26.203 40.8436 26.7812 40.1328 26.7812Z"/>
<path d="M14.2656 13.8906C14.9776 13.8906 15.5547 13.3135 15.5547 12.6016C15.5547 11.8896 14.9776 11.3125 14.2656 11.3125C13.5537 11.3125 12.9766 11.8896 12.9766 12.6016C12.9766 13.3135 13.5537 13.8906 14.2656 13.8906Z"/>
<path d="M29.7344 13.8906C30.4463 13.8906 31.0234 13.3135 31.0234 12.6016C31.0234 11.8896 30.4463 11.3125 29.7344 11.3125C29.0224 11.3125 28.4453 11.8896 28.4453 12.6016C28.4453 13.3135 29.0224 13.8906 29.7344 13.8906Z"/>
<path d="M24.5781 11.3125C25.2901 11.3125 25.8672 10.7354 25.8672 10.0234C25.8672 9.31151 25.2901 8.73438 24.5781 8.73438C23.8662 8.73438 23.2891 9.31151 23.2891 10.0234C23.2891 10.7354 23.8662 11.3125 24.5781 11.3125Z"/>
<path d="M19.4219 8.73438C20.1338 8.73438 20.7109 8.15724 20.7109 7.44531C20.7109 6.73338 20.1338 6.15625 19.4219 6.15625C18.7099 6.15625 18.1328 6.73338 18.1328 7.44531C18.1328 8.15724 18.7099 8.73438 19.4219 8.73438Z"/>
</g>

</symbol><symbol id="pizza" viewBox="0 0 45 44">
<g clip-path="url(#clip0_0_172)">
<path d="M43.8581 43.7521C43.6233 43.9838 43.2762 44.0611 42.9657 43.9499L7.27139 31.2228C6.03131 31.9811 4.4584 32.1587 3.01577 31.5613C0.62113 30.5694 -0.520204 27.8141 0.471684 25.4193C2.81081 19.7725 6.18806 14.718 10.5099 10.3961C14.8318 6.07421 19.8863 2.69688 25.5332 0.357838C26.1196 0.114979 26.7274 -3.8147e-06 27.3259 -3.8147e-06C29.1714 8.01086e-05 30.9262 1.09364 31.6751 2.90201C32.179 4.11871 32.1314 5.42823 31.6494 6.55263L44.0674 42.8624C44.1742 43.1745 44.0929 43.5203 43.8581 43.7521ZM12.676 31.3252L16.459 32.6739C16.9031 32.2007 17.1196 31.5493 17.0328 30.8905C16.9564 30.3104 16.6587 29.7947 16.1945 29.4385C15.7304 29.0823 15.1556 28.9284 14.5751 29.0046C13.9951 29.081 13.4795 29.3786 13.1233 29.8429C12.7951 30.2706 12.639 30.7924 12.676 31.3252ZM30.0872 3.55986C29.4579 2.04066 27.7098 1.31664 26.1909 1.94605C15.1875 6.50373 6.61758 15.0737 2.05972 26.0772C1.7549 26.813 1.7549 27.6235 2.05972 28.3595C2.36454 29.0954 2.93766 29.6685 3.67354 29.9733C4.40942 30.2781 5.21998 30.2781 5.95586 29.9733C6.69174 29.6685 7.26486 29.0954 7.56968 28.3595C9.52054 23.6495 12.3376 19.4336 15.9425 15.8287C19.5474 12.2238 23.7633 9.40687 28.4732 7.45592C29.9924 6.82677 30.7165 5.07889 30.0872 3.55986ZM37.7221 29.6202C37.6443 29.6221 37.5664 29.6265 37.4888 29.6367C36.9088 29.7131 36.3931 30.0108 36.037 30.4749C35.6808 30.9391 35.5267 31.5142 35.603 32.0942C35.7607 33.2917 36.8629 34.1375 38.0608 33.98C38.4303 33.9314 38.7772 33.7881 39.0731 33.57L37.7221 29.6202ZM39.6443 35.241C39.2256 35.469 38.7656 35.6208 38.2851 35.6841C36.1477 35.9662 34.1803 34.4557 33.899 32.3185C33.7627 31.2833 34.0377 30.257 34.6734 29.4285C35.2857 28.6306 36.1622 28.1093 37.151 27.9503L35.4429 22.9557L33.4786 24.4631C33.1021 24.7518 32.5625 24.681 32.2737 24.3044C31.9847 23.9279 32.0558 23.3884 32.4323 23.0995L34.8562 21.2397L30.4137 8.24981C30.0411 8.57379 29.612 8.84484 29.1314 9.04396C20.0237 12.8165 12.9304 19.9098 9.15806 29.0173C9.02692 29.334 8.86398 29.6281 8.67604 29.899L10.9774 30.7195C11.0577 30.0262 11.3239 29.3648 11.7598 28.7967C12.3954 27.9682 13.3157 27.437 14.3509 27.3007C14.5243 27.2779 14.6972 27.2665 14.8693 27.2665C15.7242 27.2665 16.5512 27.5458 17.2409 28.075C18.0694 28.7107 18.6006 29.6308 18.737 30.6662C18.8593 31.5956 18.6424 32.5162 18.1554 33.2788L28.838 37.0877L29.2428 36.1103C29.38 35.7793 29.6999 35.5795 30.0371 35.5795C30.1467 35.5795 30.2581 35.6007 30.3657 35.6452C30.8041 35.8268 31.0124 36.3296 30.8308 36.768L30.459 37.6656L41.8645 41.7324L39.6443 35.241Z"/>
<path d="M9.39401 20.9451C9.39143 20.9492 9.3843 20.9601 9.38155 20.964C9.11841 21.3587 8.58585 21.4647 8.19097 21.2018C7.79678 20.9394 7.68987 20.4066 7.95078 20.0118C8.11535 19.7589 8.39069 19.621 8.67196 19.621C8.83112 19.621 8.99208 19.6652 9.13577 19.7576C9.53503 20.0142 9.65062 20.5459 9.39401 20.9451Z"/>
<path d="M8.08706 23.08C7.2496 24.5483 6.49679 26.0851 5.8496 27.6473C5.66801 28.0859 5.16502 28.2939 4.72683 28.1123C4.28829 27.9307 4.08015 27.428 4.26182 26.9896C4.93643 25.361 5.72121 23.7591 6.59416 22.2285C6.75272 21.9506 7.04284 21.7947 7.34139 21.7947C7.48576 21.7947 7.63211 21.8312 7.76635 21.9077C8.17859 22.1429 8.32227 22.6678 8.08706 23.08Z"/>
<path d="M27.0054 33.0012C26.8351 33.0237 26.6621 33.035 26.4913 33.035C24.539 33.035 22.8744 31.5737 22.6193 29.6358C22.338 27.4987 23.8476 25.5311 25.9847 25.2497C26.1551 25.2272 26.3281 25.2159 26.4989 25.2159C28.4511 25.2159 30.1157 26.6772 30.3708 28.6153C30.6521 30.7523 29.1424 32.7198 27.0054 33.0012ZM28.6668 28.8396C28.5238 27.7536 27.5919 26.9347 26.4989 26.9347C26.4028 26.9347 26.3053 26.941 26.2091 26.9538C25.0116 27.1115 24.1658 28.2139 24.3234 29.4115C24.4664 30.4974 25.3983 31.3162 26.4913 31.3162C26.5873 31.3162 26.6849 31.3098 26.781 31.2971C27.9785 31.1393 28.8245 30.0369 28.6668 28.8396Z"/>
<path d="M26.7818 22.3116C26.6113 22.3341 26.4384 22.3455 26.2676 22.3455C24.3154 22.3455 22.6507 20.8841 22.3957 18.9461C22.2593 17.9108 22.5343 16.8846 23.17 16.056C23.8056 15.2276 24.7258 14.6963 25.7611 14.56C25.9313 14.5375 26.1042 14.5263 26.275 14.5263C28.2272 14.5263 29.8919 15.9876 30.1471 17.9257C30.4285 20.0626 28.9188 22.0301 26.7818 22.3116ZM28.4432 18.1499C28.3002 17.0639 27.3681 16.245 26.2752 16.245C26.1792 16.245 26.0816 16.2515 25.9855 16.2641C25.4055 16.3406 24.8898 16.6383 24.5336 17.1024C24.1774 17.5666 24.0233 18.1417 24.0997 18.7218C24.2427 19.8077 25.1747 20.6266 26.2676 20.6266C26.3637 20.6266 26.4612 20.6203 26.5574 20.6075C27.7547 20.4498 28.6007 19.3474 28.4432 18.1499Z"/>
<path d="M21.1138 25.8718L18.4724 26.2196C18.0021 26.2821 17.5701 25.9504 17.5082 25.4799C17.4461 25.0093 17.7774 24.5776 18.2479 24.5157L20.8893 24.1679C20.9274 24.1628 20.9652 24.1604 21.0026 24.1604C21.4272 24.1604 21.7965 24.4752 21.8534 24.9076C21.9156 25.3781 21.5844 25.8099 21.1138 25.8718Z"/>
<path d="M19.7743 19.5299L19.5411 21.3022C19.4792 21.7728 19.0476 22.1042 18.577 22.0421C18.1064 21.9801 17.7752 21.5485 17.8371 21.0779L18.0705 19.3056C18.1274 18.8731 18.4966 18.5583 18.9213 18.5583C18.9587 18.5583 18.9965 18.5607 19.0345 18.5657C19.5051 18.6277 19.8363 19.0593 19.7743 19.5299Z"/>
</g>

</symbol><symbol id="sandwiches" viewBox="0 0 44 44">
<g clip-path="url(#clip0_0_263)">
<path d="M41.7999 6.59989H40.3333V5.13319C40.3333 3.91821 39.3482 2.93319 38.1333 2.93319H36.3865L35.3253 0.810968C35.0787 0.312358 34.5697 -0.00234463 34.0134 -0.00011025H33C32.1899 -0.00011025 31.5333 0.656538 31.5333 1.46659V2.93328H23.4666C22.2515 2.93328 21.2666 3.91821 21.2666 5.13328V6.59989H19.8C18.585 6.59989 17.6 7.58491 17.6 8.79989V10.2666C17.6 11.0766 18.2566 11.7333 19.0666 11.7333H19.1444L20.0024 19.31L16.4692 18.4799C16.291 18.2057 16.1025 17.9336 15.8928 17.6666L14.6461 12.3008C14.5691 11.969 14.2739 11.734 13.9333 11.7332H9.71957C7.73149 9.98127 5.38187 9.18927 3.60941 9.71066L2.53287 8.53735C2.12605 8.09323 1.48693 7.94722 0.927647 8.17066C0.36742 8.38653 -0.00159544 8.92553 -4.85612e-05 9.52589V41.8146C0.00158425 43.0208 0.979038 43.9983 2.18526 43.9999H38.1333C38.5061 43.9996 38.8193 43.7198 38.8615 43.3494L42.4541 11.7332H42.5333C43.3434 11.7332 44 11.0765 44 10.2665V8.79989C44 7.58491 43.015 6.59989 41.7999 6.59989ZM33 1.46659H34.0134L34.7467 2.93328H33V1.46659ZM22.7333 5.13319C22.7333 4.72817 23.0616 4.39989 23.4666 4.39989H38.1333C38.5383 4.39989 38.8666 4.72817 38.8666 5.13319V6.59989H22.7333V5.13319ZM20.68 20.9732L20.7262 20.982L21.3187 21.1227L21.7162 25.2844C20.5645 24.469 19.1864 24.0346 17.7753 24.0421C18.0469 22.7482 17.9031 21.4017 17.3646 20.1943L20.68 20.9732ZM22.1129 27.4596L22.1224 27.4677C22.388 27.7134 22.6403 27.9734 22.8777 28.2464C23.7502 29.2199 24.3917 30.3778 24.7543 31.6337C24.8783 32.0711 24.9421 32.5233 24.9443 32.9779L18.095 25.5081C19.6184 25.6787 21.0369 26.3677 22.1129 27.4596ZM14.385 18.1397V18.1382C15.9676 19.9569 16.7046 22.1415 16.3548 23.6096L8.89165 15.4733C10.3972 15.1367 12.6866 16.1941 14.385 18.1397ZM13.3466 13.1999L13.9333 15.6969C13.344 15.237 12.7017 14.8495 12.0201 14.5427C11.7429 14.0738 11.4329 13.6251 11.0924 13.1999H13.3466ZM9.66019 13.7455H9.66311C9.72395 13.8152 9.77388 13.8922 9.83249 13.9655C9.14404 13.9021 8.45087 14.0185 7.82095 14.3036L4.80618 11.016C6.28026 11.0373 8.2038 12.0742 9.66019 13.7455ZM30.737 42.1025C30.6235 42.3636 30.3661 42.5328 30.0813 42.5333H23.4666H2.18526C1.78831 42.5333 1.46656 42.2115 1.46656 41.8146L1.45333 9.53328L16.1721 25.5815V25.5852L24.8166 35.0093L24.8262 35.0203L29.568 40.1917C29.5848 40.2137 29.6024 40.2357 29.6215 40.257L30.6049 41.3291C30.7987 41.5377 30.8506 41.8413 30.737 42.1025ZM26.1976 34.3448C26.3318 33.9069 26.4 33.4513 26.4 32.9933C26.7852 33.3182 27.1442 33.673 27.4736 34.0544C27.8832 34.5225 28.2469 35.0289 28.5596 35.5666C28.9879 36.2867 29.2906 37.0742 29.455 37.8957L26.1976 34.3448ZM37.4784 42.5333H32.1361C32.4108 41.7734 32.2366 40.9238 31.6851 40.3333L30.9466 39.5266C31.0915 38.299 30.8935 37.0552 30.3746 35.9333H38.2286L37.4784 42.5333ZM38.3951 34.4666H29.5951C29.2941 33.9836 28.9568 33.5242 28.586 33.0923C27.8643 32.2546 27.0171 31.534 26.0743 30.956C25.6434 29.5974 24.931 28.3447 23.9836 27.2798C23.7636 27.0305 23.5436 26.798 23.3126 26.5743L22.7333 20.4635C22.7035 20.1509 22.4779 19.892 22.1723 19.8197L21.5226 19.6657L21.3686 18.3332H40.2292L38.3951 34.4666ZM40.3956 16.8666H21.2021L20.6213 11.7333H40.9786L40.3956 16.8666ZM42.5333 10.2666H19.0666V8.79989C19.0666 8.39487 19.3949 8.06658 19.8 8.06658H41.7999C42.205 8.06658 42.5333 8.39487 42.5333 8.79989V10.2666Z"/>
<path d="M31.1006 32.2667C31.1423 32.2667 31.1834 32.2608 31.2245 32.2594C31.2355 32.2594 31.2465 32.2667 31.2575 32.2667C31.2943 32.2644 31.3308 32.2593 31.3667 32.2513C32.5147 32.1738 33.5724 31.6017 34.2655 30.6834C35.1895 29.3853 35.4536 27.7299 34.9798 26.2087C34.8778 25.8288 34.7847 25.4563 34.6945 25.0962C34.1225 22.8031 33.5762 20.6404 31.2596 20.543C31.2362 20.543 31.2142 20.5386 31.1907 20.5386C31.1672 20.5386 31.1328 20.5334 31.1005 20.5334C28.5089 20.5334 26.3998 23.1654 26.3998 26.4001C26.3998 29.6349 28.5089 32.2667 31.1006 32.2667ZM31.6682 22.11C32.4264 22.4077 32.7601 23.4014 33.2719 25.451C33.3636 25.8177 33.4589 26.202 33.5652 26.5914C33.9163 27.6723 33.7448 28.8549 33.101 29.7916C32.8673 30.0981 32.5682 30.3486 32.2254 30.5249C32.2006 29.2643 31.9524 28.0181 31.4921 26.8443C31.4188 26.6155 31.3454 26.3947 31.2809 26.1843C30.8542 24.7962 31.3542 22.9973 31.6682 22.11ZM30.0922 22.22C29.615 23.6363 29.5416 25.1577 29.8802 26.6134C29.9477 26.8334 30.0225 27.0614 30.1002 27.2983C30.4669 28.4174 30.9069 29.7704 30.7272 30.7662C29.1198 30.5154 27.8665 28.6542 27.8665 26.4C27.8666 24.453 28.8016 22.8 30.0922 22.22Z"/>
<path d="M3.88139 38.563L3.36293 39.0815C3.17232 39.2657 3.09584 39.5383 3.16296 39.7947C3.23007 40.0511 3.43031 40.2514 3.68666 40.3184C3.9431 40.3855 4.21569 40.309 4.39985 40.1184L4.91831 39.6C5.19624 39.3122 5.19228 38.8548 4.90938 38.572C4.62656 38.2891 4.16911 38.2851 3.88139 38.563Z"/>
<path d="M10.8929 33.6264C11.1794 33.3399 11.1794 32.8753 10.8929 32.5887C10.6064 32.3021 10.1418 32.3021 9.85518 32.5887L9.33672 33.1071C9.15135 33.2923 9.07891 33.5624 9.14663 33.8155C9.21434 34.0687 9.412 34.2664 9.66509 34.3343C9.91817 34.4022 10.1883 34.3299 10.3736 34.1447L10.8929 33.6264Z"/>
<path d="M4.39994 31.7482L3.88148 32.2667C3.69087 32.4509 3.61439 32.7234 3.6815 32.9799C3.74862 33.2362 3.94885 33.4365 4.20521 33.5036C4.46164 33.5707 4.73424 33.4942 4.9184 33.3036L5.43686 32.7851C5.71478 32.4974 5.71083 32.04 5.42793 31.7572C5.1451 31.4743 4.68766 31.4703 4.39994 31.7482Z"/>
<path d="M4.39994 26.6149L3.88148 27.1333C3.69087 27.3175 3.61439 27.5901 3.6815 27.8465C3.74862 28.1029 3.94885 28.3031 4.20521 28.3702C4.46164 28.4373 4.73424 28.3609 4.9184 28.1702L5.43686 27.6518C5.71478 27.3641 5.71083 26.9066 5.42793 26.6238C5.1451 26.341 4.68766 26.337 4.39994 26.6149Z"/>
<path d="M11 38.563L10.4815 39.0815C10.2909 39.2657 10.2144 39.5383 10.2816 39.7947C10.3487 40.0511 10.5489 40.2514 10.8053 40.3184C11.0617 40.3855 11.3343 40.309 11.5185 40.1184L12.0369 39.6C12.3148 39.3122 12.3109 38.8548 12.028 38.572C11.7452 38.2891 11.2877 38.2851 11 38.563Z"/>
<path d="M16.3481 38.5631L15.8297 39.0816C15.6391 39.2658 15.5626 39.5384 15.6297 39.7948C15.6968 40.0512 15.897 40.2515 16.1534 40.3185C16.4098 40.3856 16.6824 40.3091 16.8666 40.1185L17.385 39.6001C17.663 39.3123 17.659 38.8549 17.3761 38.5721C17.0932 38.2893 16.6358 38.2852 16.3481 38.5631Z"/>
</g>

</symbol><symbol id="sets" viewBox="0 0 44 44">
<g clip-path="url(#clip0_0_228)">
<path d="M31.158 14.6574L30.6872 13.1258C30.0892 11.3861 28.1775 10.455 26.4173 11.046C25.4271 11.3786 24.6495 12.1471 24.3131 13.1258L23.8423 14.6574C23.4461 15.949 23.3629 17.3147 23.5995 18.6439C23.8153 19.763 24.5342 20.7245 25.5531 21.2569L25.0259 32.907C24.9553 33.5572 25.1687 34.2064 25.6125 34.6915C26.5671 35.7235 28.1874 35.7952 29.2314 34.8518C29.2879 34.8008 29.342 34.7473 29.3936 34.6915C29.8275 34.2202 30.0406 33.59 29.9803 32.9555L29.4501 21.2555C30.4677 20.7228 31.1853 19.762 31.4007 18.6439C31.6373 17.3147 31.5542 15.949 31.158 14.6574ZM29.9561 18.3917C29.7973 19.1957 29.2176 19.8554 28.4344 20.1233C28.1371 20.2337 27.9456 20.5208 27.9599 20.8343L28.5173 33.0701C28.5429 33.3101 28.4628 33.5494 28.2973 33.7268C27.8557 34.1588 27.1446 34.1588 26.703 33.7268C26.5292 33.535 26.4503 33.277 26.4874 33.0222L27.0403 20.8343C27.0546 20.5208 26.8631 20.2337 26.5659 20.1233C25.7827 19.8554 25.203 19.1957 25.0442 18.3917C24.848 17.2881 24.9172 16.1544 25.2459 15.0821L25.7167 13.5499C26.081 12.5763 27.1747 12.079 28.1598 12.4391C28.6805 12.6294 29.091 13.0352 29.2836 13.5499L29.7544 15.0821C30.0827 16.1545 30.1519 17.2881 29.9561 18.3917Z"/>
<path d="M19.8 10.8723C19.395 10.8723 19.0667 11.1969 19.0667 11.5971V17.8205L17.0815 19.7826C16.9347 19.9272 16.8566 20.1266 16.8667 20.3313L17.5083 33.0157C17.5236 33.2892 17.4232 33.5567 17.2311 33.7543C16.8297 34.1545 16.176 34.1574 15.7709 33.7606C15.7687 33.7585 15.7666 33.7563 15.7645 33.7543C15.5723 33.5567 15.472 33.2892 15.4873 33.0157L16.1333 20.3313C16.1436 20.1267 16.0658 19.9273 15.9192 19.7826L13.9333 17.8205V11.5971C13.9333 11.1969 13.605 10.8723 13.2 10.8723C12.795 10.8723 12.4667 11.1969 12.4667 11.5971V18.1205C12.4667 18.3128 12.544 18.4971 12.6815 18.633L14.6513 20.5806L14.0257 32.9454C13.9592 34.296 15.013 35.4443 16.3795 35.51C17.7459 35.5758 18.9077 34.5343 18.9743 33.1836C18.9782 33.1043 18.9782 33.0248 18.9743 32.9454L18.3487 20.5807L20.3185 18.6331C20.456 18.4972 20.5333 18.3129 20.5333 18.1206V11.5972C20.5333 11.1969 20.205 10.8723 19.8 10.8723Z"/>
<path d="M15.4 10.8723C14.995 10.8723 14.6667 11.1969 14.6667 11.5971V17.3957C14.6667 17.796 14.995 18.1205 15.4 18.1205C15.805 18.1205 16.1334 17.796 16.1334 17.3957V11.5971C16.1334 11.1969 15.805 10.8723 15.4 10.8723Z"/>
<path d="M17.6 10.8723C17.195 10.8723 16.8666 11.1969 16.8666 11.5971V17.3957C16.8666 17.796 17.195 18.1205 17.6 18.1205C18.005 18.1205 18.3333 17.796 18.3333 17.3957V11.5971C18.3333 11.1969 18.005 10.8723 17.6 10.8723Z"/>
<path d="M22 0C9.84977 0 0 9.73546 0 21.7447C0 33.7539 9.84977 43.4894 22 43.4894C34.1502 43.4894 44 33.7539 44 21.7447C43.9863 9.74108 34.1446 0.0135904 22 0ZM22 42.0397C10.6597 42.0397 1.46667 32.9534 1.46667 21.7447C1.46667 10.536 10.6597 1.44965 22 1.44965C33.3403 1.44965 42.5333 10.536 42.5333 21.7447C42.5204 32.948 33.3349 42.027 22 42.0397Z"/>
<path d="M24.3804 35.3511C24.3411 34.9525 23.9824 34.6609 23.5793 34.6998C23.5698 34.7007 23.5604 34.7018 23.551 34.703L23.5539 34.7023C22.5214 34.8209 21.4785 34.8209 20.446 34.7023C20.0436 34.6556 19.6792 34.9404 19.632 35.3383C19.5848 35.7363 19.8727 36.0966 20.2752 36.1433C21.4202 36.2755 22.5768 36.2755 23.7218 36.1433C24.1249 36.1045 24.4198 35.7498 24.3804 35.3511Z"/>
<path d="M33.2202 12.4046C32.9599 12.0979 32.4974 12.0577 32.1871 12.315C32.1861 12.3159 32.1851 12.3168 32.184 12.3176C31.8744 12.5756 31.835 13.0328 32.096 13.3389C36.5175 18.5268 36.1793 26.198 31.3179 30.9861C31.031 31.2687 31.0302 31.7278 31.3161 32.0114C31.602 32.295 32.0665 32.2958 32.3534 32.0132C37.756 26.6936 38.1327 18.1695 33.2202 12.4046Z"/>
<path d="M17.0859 9.58157C17.0854 9.58157 17.085 9.58057 17.0845 9.58057C17.0838 9.58057 17.083 9.58157 17.0822 9.58157H17.0859Z"/>
<path d="M25.4592 7.65335C22.5932 6.97447 19.5874 7.15694 16.8271 8.1774C16.4479 8.31829 16.2563 8.73633 16.3988 9.11097C16.5062 9.39338 16.7794 9.5803 17.0846 9.58057C17.1723 9.58011 17.2592 9.56426 17.3411 9.53355C19.827 8.61474 22.5337 8.45066 25.1145 9.06241C25.5082 9.15646 25.9045 8.91736 25.9996 8.52822C26.0948 8.13908 25.8529 7.7474 25.4592 7.65335Z"/>
<path d="M12.6492 30.9499C10.1771 28.5106 8.79154 25.1973 8.79997 21.7446C8.79273 18.9861 9.67677 16.2974 11.3234 14.0702C11.5667 13.7502 11.5016 13.2958 11.1778 13.0553C10.854 12.8147 10.3943 12.8791 10.151 13.1992C10.1466 13.2049 10.1424 13.2106 10.1383 13.2164C5.89845 18.9776 6.52233 26.9299 11.6101 31.9762C11.8968 32.2598 12.362 32.26 12.6489 31.9766C12.9358 31.6932 12.936 31.2335 12.6492 30.9499Z"/>
</g>

</symbol></svg>