<svg aria-hidden="true" style="position: absolute; width: 0; height: 0; overflow: hidden;" version="1.1" xmlns="http://www.w3.org/2000/svg" xmlns:xlink="http://www.w3.org/1999/xlink">
<defs>
<symbol id="icon-asian" viewBox="0 0 32 32">
<path fill="#363853" style="fill: var(--color1, #363853)" d="M11.005 9.867h1.545c0.401 0 0.727 0.326 0.727 0.727v1.065c0 0.259 0.21 0.469 0.469 0.469s0.469-0.21 0.469-0.469v-1.065c0-0.918-0.747-1.665-1.665-1.665h-1.545c-0.394 0-0.715-0.321-0.715-0.715s0.321-0.715 0.715-0.715h3.427c0.911 0 1.652-0.741 1.652-1.652s-0.741-1.652-1.652-1.652h-2.741c-0.259 0-0.469 0.21-0.469 0.469s0.21 0.469 0.469 0.469h2.741c0.394 0 0.715 0.321 0.715 0.715s-0.321 0.715-0.715 0.715h-3.427c-0.911 0-1.652 0.741-1.652 1.652s0.741 1.652 1.652 1.652z"></path>
<path fill="#363853" style="fill: var(--color1, #363853)" d="M5.373 13.013h1.534c0.396 0 0.718 0.322 0.718 0.718v1.057c0 0.259 0.21 0.469 0.469 0.469s0.469-0.21 0.469-0.469v-1.057c0-0.913-0.743-1.656-1.656-1.656h-1.534c-0.389 0-0.706-0.317-0.706-0.706s0.317-0.706 0.706-0.706h1.793c0.259 0 0.469-0.21 0.469-0.469s-0.21-0.469-0.469-0.469h-1.793c-0.906 0-1.643 0.737-1.643 1.643s0.737 1.643 1.643 1.643z"></path>
<path fill="#363853" style="fill: var(--color1, #363853)" d="M18.656 19.5c0.259 0 0.469-0.21 0.469-0.469s-0.21-0.469-0.469-0.469c-0.259 0-0.469 0.21-0.469 0.469s0.21 0.469 0.469 0.469z"></path>
<path fill="#363853" style="fill: var(--color1, #363853)" d="M20.969 20.562c0.259 0 0.469-0.21 0.469-0.469s-0.21-0.469-0.469-0.469c-0.259 0-0.469 0.21-0.469 0.469s0.21 0.469 0.469 0.469z"></path>
<path fill="#363853" style="fill: var(--color1, #363853)" d="M22.344 22.188c0.259 0 0.469-0.21 0.469-0.469s-0.21-0.469-0.469-0.469c-0.259 0-0.469 0.21-0.469 0.469s0.21 0.469 0.469 0.469z"></path>
<path fill="#363853" style="fill: var(--color1, #363853)" d="M20.406 18.375c0.259 0 0.469-0.21 0.469-0.469s-0.21-0.469-0.469-0.469c-0.259 0-0.469 0.21-0.469 0.469s0.21 0.469 0.469 0.469z"></path>
<path fill="#363853" style="fill: var(--color1, #363853)" d="M18.844 22.5c0.259 0 0.469-0.21 0.469-0.469s-0.21-0.469-0.469-0.469c-0.259 0-0.469 0.21-0.469 0.469s0.21 0.469 0.469 0.469z"></path>
<path fill="#363853" style="fill: var(--color1, #363853)" d="M31.208 16.59h-1.33l0.657-1.358c0.834-0.166 1.464-0.903 1.464-1.785 0-0.904-0.663-1.657-1.529-1.797-0.957-1.723-2.825-3.017-5.092-3.534v-0.036c0-0.259-0.21-0.469-0.469-0.469-0.215 0-0.395 0.144-0.451 0.341-0.285-0.037-0.576-0.061-0.87-0.073-0.075-0.158-0.236-0.268-0.423-0.268s-0.348 0.11-0.423 0.268c-0.294 0.012-0.585 0.036-0.87 0.073-0.056-0.197-0.236-0.341-0.451-0.341-0.259 0-0.469 0.21-0.469 0.469v0.036c-2.266 0.517-4.135 1.811-5.092 3.534-0.866 0.14-1.529 0.892-1.529 1.797 0 0.053 0.002 0.105 0.007 0.157-2.164 0.201-4.108 1.105-5.567 2.462h-2.945c-0.201 0-0.38 0.090-0.502 0.232h-1.377c-0.225-0.57-0.785-0.972-1.423-0.972-0.844 0-1.53 0.686-1.53 1.53 0 0.072 0.006 0.143 0.016 0.214-0.589 0.213-1.012 0.778-1.012 1.439 0 0.294 0.083 0.576 0.237 0.818-0.153 0.242-0.237 0.524-0.237 0.818 0 0.844 0.686 1.53 1.53 1.53 0.638 0 1.198-0.403 1.423-0.972h1.24c0.057 0.209 0.214 0.381 0.426 0.453l1.47 0.499c-0.009 0.151-0.013 0.304-0.013 0.457 0 0.145 0.004 0.288 0.012 0.432-0.23 0.055-0.444 0.151-0.635 0.279-0.314-0.211-0.692-0.334-1.098-0.334-1.090 0-1.977 0.887-1.977 1.977 0 0.017 0.001 0.033 0.002 0.050h-0.548c-0.309 0-0.584 0.174-0.716 0.454s-0.092 0.602 0.105 0.841l1.406 1.709c0.151 0.183 0.374 0.289 0.611 0.289h19.825c0.259 0 0.469-0.21 0.469-0.469s-0.21-0.469-0.469-0.469h-19.757l-1.166-1.417h28.759l-1.166 1.417h-4.483c-0.259 0-0.469 0.21-0.469 0.469s0.21 0.469 0.469 0.469h4.552c0.238 0 0.46-0.105 0.611-0.289l1.406-1.709c0.197-0.239 0.237-0.561 0.105-0.841s-0.406-0.454-0.716-0.454h-0.464c0.461-0.797 0.634-1.742 0.466-2.67-0.035-0.192-0.185-0.343-0.378-0.378-1.27-0.23-2.571 0.177-3.482 1.087-0.056 0.056-0.109 0.113-0.16 0.172-0.269-0.145-0.575-0.23-0.899-0.236v-0.892h0.5c0.793 0 1.438-0.645 1.438-1.438v-0.629h2.982c0.436 0 0.792-0.355 0.792-0.792v-1.356c0-0.437-0.355-0.792-0.792-0.792zM4.575 24.514h-1.259c-0.001-0.017-0.002-0.033-0.002-0.050 0-0.573 0.466-1.039 1.039-1.039 0.163 0 0.317 0.038 0.454 0.106-0.15 0.278-0.235 0.596-0.235 0.934 0 0.017 0.001 0.033 0.002 0.050zM28.012 23.216c0.613-0.613 1.459-0.926 2.316-0.869 0.052 0.789-0.21 1.569-0.731 2.167h-0.773l0.64-0.64c0.183-0.183 0.183-0.48 0-0.663s-0.48-0.183-0.663 0l-0.664 0.664c-0.059-0.187-0.145-0.363-0.253-0.522 0.041-0.047 0.084-0.093 0.128-0.137zM18.548 10.14c0.709-0.475 1.529-0.832 2.406-1.056v0.482c0 0.259 0.21 0.469 0.469 0.469s0.469-0.21 0.469-0.469v-0.668c0.266-0.038 0.535-0.063 0.806-0.077v0.745c0 0.259 0.21 0.469 0.469 0.469s0.469-0.21 0.469-0.469v-0.745c0.271 0.014 0.541 0.039 0.806 0.077v0.668c0 0.259 0.21 0.469 0.469 0.469s0.469-0.21 0.469-0.469v-0.482c0.878 0.224 1.697 0.581 2.406 1.056 0.691 0.463 1.254 1.022 1.665 1.641-0.158 0.070-0.307 0.161-0.44 0.273-0.323-0.271-0.736-0.427-1.169-0.427s-0.845 0.156-1.169 0.427c-0.323-0.271-0.737-0.427-1.169-0.427s-0.845 0.156-1.169 0.427c-0.323-0.271-0.737-0.427-1.169-0.427s-0.845 0.156-1.169 0.427c-0.323-0.271-0.736-0.427-1.169-0.427s-0.845 0.156-1.169 0.427c-0.323-0.271-0.736-0.427-1.169-0.427s-0.845 0.156-1.169 0.427c-0.133-0.111-0.281-0.203-0.44-0.273 0.41-0.618 0.973-1.178 1.665-1.641zM16.154 12.564c0.313 0 0.605 0.169 0.763 0.442 0.084 0.145 0.238 0.234 0.406 0.234s0.322-0.089 0.405-0.234c0.158-0.272 0.45-0.442 0.763-0.442s0.605 0.169 0.763 0.442c0.084 0.145 0.238 0.234 0.405 0.234s0.322-0.089 0.406-0.234c0.158-0.272 0.45-0.442 0.763-0.442s0.605 0.169 0.763 0.442c0.084 0.145 0.238 0.234 0.405 0.234s0.322-0.089 0.406-0.234c0.158-0.272 0.45-0.442 0.763-0.442s0.605 0.169 0.763 0.442c0.084 0.145 0.238 0.234 0.405 0.234s0.322-0.089 0.405-0.234c0.158-0.272 0.45-0.442 0.763-0.442s0.605 0.169 0.763 0.442c0.084 0.145 0.238 0.234 0.405 0.234s0.322-0.089 0.406-0.234c0.158-0.272 0.45-0.442 0.763-0.442s0.605 0.169 0.763 0.442c0.084 0.145 0.238 0.234 0.405 0.234s0.322-0.089 0.405-0.234c0.158-0.272 0.45-0.442 0.763-0.442 0.487 0 0.883 0.396 0.883 0.883s-0.396 0.883-0.883 0.883c-0.313 0-0.605-0.169-0.763-0.442-0.084-0.145-0.238-0.234-0.405-0.234s-0.322 0.089-0.405 0.234c-0.158 0.272-0.451 0.442-0.763 0.442s-0.605-0.169-0.763-0.442c-0.084-0.145-0.238-0.234-0.406-0.234s-0.322 0.089-0.405 0.234c-0.158 0.272-0.45 0.442-0.763 0.442s-0.605-0.169-0.763-0.442c-0.084-0.145-0.238-0.234-0.405-0.234s-0.322 0.089-0.405 0.234c-0.158 0.272-0.45 0.442-0.763 0.442s-0.605-0.169-0.763-0.442c-0.084-0.145-0.238-0.234-0.406-0.234s-0.322 0.089-0.405 0.234c-0.158 0.272-0.451 0.442-0.763 0.442s-0.605-0.169-0.763-0.442c-0.084-0.145-0.238-0.234-0.406-0.234s-0.322 0.089-0.405 0.234c-0.092 0.159-0.231 0.283-0.392 0.358-1.101-0.439-2.312-0.683-3.583-0.685-0.005-0.037-0.008-0.075-0.008-0.114 0-0.487 0.396-0.883 0.883-0.883zM6.103 17.003h1.798c-0.185 0.23-0.358 0.468-0.518 0.715h-1.28v-0.715zM4.169 19.763h-1.583c-0.244 0-0.447 0.187-0.467 0.43-0.025 0.304-0.284 0.542-0.59 0.542-0.327 0-0.592-0.266-0.592-0.592 0-0.177 0.078-0.344 0.215-0.457 0.108-0.089 0.17-0.221 0.17-0.361s-0.062-0.272-0.17-0.361c-0.137-0.113-0.215-0.28-0.215-0.457 0-0.327 0.266-0.592 0.592-0.592 0.305 0 0.564 0.238 0.59 0.542 0.020 0.243 0.223 0.43 0.467 0.43h1.583v0.876h-0zM4.33 17.95h-1.377c-0.172-0.436-0.54-0.773-0.989-0.908-0.020-0.060-0.031-0.123-0.031-0.188 0-0.327 0.266-0.592 0.592-0.592 0.305 0 0.564 0.238 0.59 0.542 0.020 0.243 0.223 0.43 0.467 0.43h1.583v0.484h-0.334c-0.201 0-0.381 0.090-0.502 0.232zM7.588 24.514h-2.075c-0.001-0.017-0.002-0.033-0.002-0.050 0-0.573 0.466-1.039 1.039-1.039s1.039 0.466 1.039 1.039c0 0.017-0.001 0.033-0.002 0.050zM22.045 24.514h-1.632c-0.001-0.017-0.002-0.033-0.002-0.050 0-0.573 0.466-1.039 1.039-1.039 0.286 0 0.546 0.117 0.735 0.305-0.091 0.227-0.142 0.475-0.142 0.735-0 0.017 0.001 0.033 0.002 0.050zM21.451 22.487c-1.090 0-1.977 0.887-1.977 1.977 0 0.017 0.001 0.033 0.002 0.050h-10.95c0-0.017 0.002-0.033 0.002-0.050 0-0.926-0.64-1.705-1.5-1.918-0.009-0.144-0.014-0.289-0.014-0.435 0-0.048 0.001-0.095 0.002-0.143l4.794 1.628c0.323 0.11 0.653 0.164 0.98 0.164 0.618 0 1.225-0.193 1.749-0.568 0.801-0.574 1.261-1.468 1.261-2.454 0-0.352-0.060-0.698-0.18-1.027-0.088-0.243-0.357-0.369-0.6-0.281s-0.369 0.357-0.281 0.6c0.082 0.227 0.124 0.465 0.124 0.708 0 0.68-0.317 1.296-0.869 1.692s-1.238 0.497-1.882 0.279l-7.003-2.378v-1.674h7.672c0.235 0 0.467 0.039 0.688 0.117 0.244 0.086 0.512-0.043 0.597-0.287s-0.043-0.512-0.287-0.597c-0.322-0.113-0.658-0.17-0.999-0.17h-4.25c1.495-1.947 3.955-3.22 6.731-3.22 4.548 0 8.248 3.415 8.248 7.613 0 0.15-0.005 0.299-0.015 0.448-0.283 0.078-0.541 0.219-0.758 0.405-0.346-0.296-0.794-0.476-1.285-0.476zM25.057 24.514h-2.075c-0.001-0.017-0.002-0.033-0.002-0.050 0-0.573 0.466-1.039 1.039-1.039s1.039 0.466 1.039 1.039c0 0.017-0.001 0.033-0.002 0.050zM25.352 22.705c-0.075 0.038-0.147 0.081-0.216 0.128-0.208-0.143-0.446-0.246-0.701-0.301 0.007-0.14 0.011-0.28 0.011-0.421 0-0.173-0.007-0.344-0.018-0.514h0.924v1.109zM27.289 24.464c0 0.017-0.001 0.033-0.002 0.050h-1.293c0-0.017 0.002-0.033 0.002-0.050 0-0.332-0.083-0.645-0.228-0.92 0.144-0.076 0.308-0.119 0.481-0.119 0.573 0 1.039 0.466 1.039 1.039zM27.289 20.159c0 0.276-0.224 0.5-0.5 0.5h-2.478c-0.071-0.386-0.169-0.763-0.294-1.129h3.272v0.629zM31.062 18.592h-7.431c-0.18-0.37-0.388-0.725-0.62-1.065h1.989c0.259 0 0.469-0.21 0.469-0.469s-0.21-0.469-0.469-0.469h-2.732c-0.448-0.492-0.955-0.937-1.51-1.325 0.024 0.001 0.047 0.002 0.071 0.002 0.432 0 0.845-0.156 1.169-0.427 0.323 0.271 0.737 0.427 1.169 0.427s0.845-0.156 1.169-0.427c0.323 0.271 0.737 0.427 1.169 0.427s0.845-0.156 1.169-0.427c0.323 0.271 0.737 0.427 1.169 0.427s0.845-0.156 1.169-0.427c0.156 0.131 0.334 0.235 0.524 0.307l-0.698 1.443h-1.649c-0.259 0-0.469 0.21-0.469 0.469s0.21 0.469 0.469 0.469h3.875v1.065z"></path>
</symbol>
<symbol id="icon-burgers" viewBox="0 0 32 32">
<path d="M32 14.79c0-1.229-0.792-2.275-1.892-2.657-0.169-3.812-1.592-6.736-4.236-8.702-2.414-1.794-5.735-2.703-9.871-2.703s-7.458 0.91-9.871 2.704c-2.644 1.966-4.067 4.891-4.237 8.702-1.1 0.382-1.892 1.428-1.892 2.657 0 0.72 0.272 1.377 0.718 1.875-0.446 0.498-0.718 1.155-0.718 1.875 0 1.236 0.802 2.288 1.912 2.664 0.402 4.284 4.044 7.649 8.463 7.649h11.25c4.419 0 8.060-3.365 8.463-7.649 1.111-0.376 1.912-1.428 1.912-2.664 0-0.72-0.272-1.377-0.718-1.875 0.446-0.498 0.718-1.155 0.718-1.875zM16 2.602c5.377 0 11.746 1.657 12.221 9.375h-24.441c0.474-7.718 6.844-9.375 12.221-9.375zM2.813 13.852h26.375c0.517 0 0.938 0.421 0.938 0.937s-0.421 0.938-0.938 0.938h-26.375c-0.517 0-0.938-0.421-0.938-0.938s0.421-0.937 0.938-0.937zM21.625 26.977h-11.25c-3.332 0-6.096-2.449-6.557-5.625h0.87c0.627 0 0.825 0.213 1.219 0.638 0.485 0.522 1.149 1.237 2.593 1.237 1.454 0 2.101-0.722 2.573-1.25 0.373-0.416 0.56-0.625 1.177-0.625s0.804 0.209 1.177 0.625c0.472 0.527 1.119 1.25 2.573 1.25s2.101-0.722 2.573-1.25c0.373-0.416 0.56-0.625 1.177-0.625s0.804 0.209 1.177 0.625c0.472 0.527 1.119 1.25 2.573 1.25s2.101-0.722 2.573-1.25c0.373-0.416 0.56-0.625 1.177-0.625h0.932c-0.461 3.176-3.225 5.625-6.557 5.625zM29.188 19.477h-1.937c-1.454 0-2.101 0.722-2.573 1.25-0.373 0.416-0.56 0.625-1.177 0.625s-0.804-0.209-1.177-0.625c-0.472-0.527-1.119-1.25-2.573-1.25s-2.101 0.722-2.573 1.25c-0.373 0.416-0.56 0.625-1.177 0.625s-0.804-0.209-1.177-0.625c-0.472-0.527-1.119-1.25-2.573-1.25s-2.101 0.722-2.573 1.25c-0.373 0.416-0.56 0.625-1.177 0.625-0.627 0-0.825-0.213-1.219-0.638-0.485-0.522-1.149-1.237-2.593-1.237h-1.875c-0.517 0-0.938-0.421-0.938-0.937s0.421-0.938 0.938-0.938h26.375c0.517 0 0.938 0.421 0.938 0.938s-0.421 0.937-0.938 0.937z"></path>
<path d="M10.375 10.102c0.518 0 0.938-0.42 0.938-0.937s-0.42-0.938-0.938-0.938c-0.518 0-0.937 0.42-0.937 0.938s0.42 0.937 0.937 0.937z"></path>
<path d="M21.625 10.102c0.518 0 0.937-0.42 0.937-0.937s-0.42-0.938-0.937-0.938c-0.518 0-0.938 0.42-0.938 0.938s0.42 0.937 0.938 0.937z"></path>
<path d="M17.875 8.227c0.518 0 0.938-0.42 0.938-0.938s-0.42-0.937-0.938-0.937c-0.518 0-0.937 0.42-0.937 0.937s0.42 0.938 0.937 0.938z"></path>
<path d="M14.125 6.352c0.518 0 0.937-0.42 0.937-0.938s-0.42-0.938-0.937-0.938c-0.518 0-0.938 0.42-0.938 0.938s0.42 0.938 0.938 0.938z"></path>
</symbol>
<symbol id="icon-pizza" viewBox="0 0 33 32">
<path fill="#363853" style="fill: var(--color1, #363853)" d="M31.897 31.82c-0.171 0.169-0.423 0.225-0.649 0.144l-25.959-9.256c-0.902 0.552-2.046 0.681-3.095 0.246-1.742-0.721-2.572-2.725-1.85-4.467 1.701-4.107 4.157-7.783 7.301-10.926s6.819-5.599 10.926-7.301c0.426-0.177 0.869-0.26 1.304-0.26 1.342 0 2.618 0.795 3.163 2.111 0.366 0.885 0.332 1.837-0.019 2.655l9.031 26.407c0.078 0.227 0.019 0.478-0.152 0.647zM9.219 22.782l2.751 0.981c0.323-0.344 0.48-0.818 0.417-1.297-0.056-0.422-0.272-0.797-0.61-1.056s-0.756-0.371-1.178-0.316c-0.422 0.056-0.797 0.272-1.056 0.61-0.239 0.311-0.352 0.691-0.325 1.078zM21.882 2.589c-0.458-1.105-1.729-1.631-2.834-1.174-8.002 3.315-14.235 9.547-17.55 17.55-0.222 0.535-0.222 1.125 0 1.66s0.639 0.952 1.174 1.174 1.125 0.222 1.66 0c0.535-0.222 0.952-0.638 1.174-1.174 1.419-3.425 3.468-6.492 6.089-9.113s5.688-4.67 9.113-6.089c1.105-0.458 1.631-1.729 1.174-2.833zM27.434 21.542c-0.057 0.001-0.113 0.005-0.17 0.012-0.422 0.056-0.797 0.272-1.056 0.61s-0.371 0.756-0.316 1.178c0.115 0.871 0.916 1.486 1.788 1.372 0.269-0.035 0.521-0.14 0.736-0.298l-0.983-2.873zM28.832 25.63c-0.305 0.166-0.639 0.276-0.988 0.322-1.554 0.205-2.985-0.893-3.19-2.448-0.099-0.753 0.101-1.499 0.563-2.102 0.445-0.58 1.083-0.959 1.802-1.075l-1.242-3.632-1.429 1.096c-0.274 0.21-0.666 0.158-0.876-0.115s-0.158-0.666 0.115-0.876l1.763-1.353-3.231-9.447c-0.271 0.236-0.583 0.433-0.933 0.578-6.624 2.744-11.783 7.902-14.526 14.526-0.095 0.23-0.214 0.444-0.351 0.641l1.674 0.597c0.058-0.504 0.252-0.985 0.569-1.398 0.462-0.603 1.132-0.989 1.884-1.088 0.126-0.017 0.252-0.025 0.377-0.025 0.622 0 1.223 0.203 1.725 0.588 0.603 0.462 0.989 1.131 1.088 1.884 0.089 0.676-0.069 1.345-0.423 1.9l7.769 2.77 0.294-0.711c0.1-0.241 0.332-0.386 0.578-0.386 0.080 0 0.161 0.015 0.239 0.048 0.319 0.132 0.47 0.498 0.338 0.817l-0.27 0.653 8.295 2.958-1.615-4.721z"></path>
<path fill="#363853" style="fill: var(--color1, #363853)" d="M6.832 15.233c-0.002 0.003-0.007 0.011-0.009 0.014-0.191 0.287-0.579 0.364-0.866 0.173s-0.364-0.578-0.175-0.865c0.12-0.184 0.32-0.284 0.524-0.284 0.116 0 0.233 0.032 0.337 0.099 0.29 0.187 0.374 0.573 0.188 0.864z"></path>
<path fill="#363853" style="fill: var(--color1, #363853)" d="M5.881 16.785c-0.609 1.068-1.157 2.186-1.627 3.322-0.132 0.319-0.498 0.47-0.817 0.338s-0.47-0.498-0.338-0.817c0.491-1.184 1.061-2.349 1.696-3.463 0.115-0.202 0.326-0.316 0.543-0.316 0.105 0 0.211 0.027 0.309 0.082 0.3 0.171 0.404 0.553 0.233 0.853z"></path>
<path fill="#363853" style="fill: var(--color1, #363853)" d="M19.64 24.001c-0.124 0.016-0.25 0.025-0.374 0.025-1.42 0-2.63-1.063-2.816-2.472-0.205-1.554 0.893-2.985 2.448-3.19 0.124-0.016 0.25-0.025 0.374-0.025 1.42 0 2.63 1.063 2.816 2.472 0.205 1.554-0.893 2.985-2.448 3.19zM20.849 20.974c-0.104-0.79-0.782-1.385-1.577-1.385-0.070 0-0.141 0.005-0.211 0.014-0.871 0.115-1.486 0.916-1.371 1.787 0.104 0.79 0.782 1.385 1.577 1.385 0.070 0 0.141-0.005 0.211-0.014 0.871-0.115 1.486-0.916 1.372-1.787z"></path>
<path fill="#363853" style="fill: var(--color1, #363853)" d="M19.478 16.227c-0.124 0.016-0.25 0.025-0.374 0.025-1.42 0-2.63-1.063-2.816-2.472-0.099-0.753 0.101-1.499 0.563-2.102s1.131-0.989 1.884-1.088c0.124-0.016 0.25-0.024 0.374-0.024 1.42 0 2.63 1.063 2.816 2.472 0.205 1.554-0.893 2.985-2.447 3.19zM20.686 13.2c-0.104-0.79-0.782-1.385-1.577-1.385-0.070 0-0.141 0.005-0.211 0.014-0.422 0.056-0.797 0.272-1.056 0.61s-0.371 0.756-0.316 1.178c0.104 0.79 0.782 1.385 1.577 1.385 0.070 0 0.141-0.005 0.211-0.014 0.871-0.115 1.486-0.916 1.372-1.787z"></path>
<path fill="#363853" style="fill: var(--color1, #363853)" d="M15.355 18.816l-1.921 0.253c-0.342 0.045-0.656-0.196-0.701-0.538s0.196-0.656 0.538-0.701l1.921-0.253c0.028-0.004 0.055-0.005 0.082-0.005 0.309 0 0.577 0.229 0.619 0.543 0.045 0.342-0.196 0.656-0.538 0.701z"></path>
<path fill="#363853" style="fill: var(--color1, #363853)" d="M14.381 14.204l-0.17 1.289c-0.045 0.342-0.359 0.583-0.701 0.538s-0.583-0.359-0.538-0.701l0.17-1.289c0.041-0.315 0.31-0.543 0.619-0.543 0.027 0 0.055 0.002 0.082 0.005 0.342 0.045 0.583 0.359 0.538 0.701z"></path>
</symbol>
<symbol id="icon-sandwiches" viewBox="0 0 32 32">
<path fill="#363853" style="fill: var(--color1, #363853)" d="M30.4 4.8h-1.067v-1.067c0-0.884-0.716-1.6-1.6-1.6h-1.27l-0.772-1.543c-0.179-0.363-0.55-0.592-0.954-0.59h-0.737c-0.589 0-1.067 0.478-1.067 1.067v1.067h-5.867c-0.884 0-1.6 0.716-1.6 1.6v1.067h-1.067c-0.884 0-1.6 0.716-1.6 1.6v1.067c0 0.589 0.478 1.067 1.067 1.067h0.057l0.624 5.51-2.57-0.604c-0.13-0.199-0.267-0.397-0.419-0.591l-0.907-3.902c-0.056-0.241-0.271-0.412-0.518-0.413h-3.065c-1.446-1.274-3.155-1.85-4.444-1.471l-0.783-0.853c-0.296-0.323-0.761-0.429-1.167-0.267-0.407 0.157-0.676 0.549-0.675 0.986v23.483c0.001 0.877 0.712 1.588 1.589 1.589h26.144c0.271-0 0.499-0.204 0.53-0.473l2.613-22.994h0.058c0.589 0 1.067-0.478 1.067-1.067v-1.067c0-0.884-0.716-1.6-1.6-1.6zM24 1.067h0.737l0.533 1.067h-1.27v-1.067zM16.533 3.733c0-0.295 0.239-0.533 0.533-0.533h10.667c0.295 0 0.533 0.239 0.533 0.533v1.067h-11.733v-1.067zM15.040 15.253l0.034 0.006 0.431 0.102 0.289 3.027c-0.838-0.593-1.84-0.909-2.866-0.904 0.198-0.941 0.093-1.92-0.299-2.798l2.411 0.566zM16.082 19.971l0.007 0.006c0.193 0.179 0.377 0.368 0.549 0.566 0.635 0.708 1.101 1.55 1.365 2.463 0.090 0.318 0.137 0.647 0.138 0.978l-4.981-5.433c1.108 0.124 2.14 0.625 2.922 1.419zM10.462 13.193v-0.001c1.151 1.323 1.687 2.912 1.433 3.979l-5.428-5.917c1.095-0.245 2.76 0.524 3.995 1.939zM9.707 9.6l0.427 1.816c-0.429-0.334-0.896-0.616-1.391-0.839-0.202-0.341-0.427-0.667-0.675-0.977h1.639zM7.026 9.997h0.002c0.044 0.051 0.081 0.107 0.123 0.16-0.501-0.046-1.005 0.039-1.463 0.246l-2.193-2.391c1.072 0.015 2.471 0.77 3.53 1.985zM22.354 30.62c-0.083 0.19-0.27 0.313-0.477 0.313h-20.288c-0.289 0-0.523-0.234-0.523-0.523l-0.010-23.477 20.447 22.297c0.012 0.016 0.025 0.032 0.039 0.047l0.715 0.78c0.141 0.152 0.179 0.372 0.096 0.562zM19.053 24.978c0.098-0.318 0.147-0.65 0.147-0.983 0.28 0.236 0.541 0.494 0.781 0.772 0.298 0.34 0.562 0.709 0.79 1.1 0.311 0.524 0.532 1.096 0.651 1.694l-2.369-2.582zM27.257 30.933h-3.885c0.2-0.553 0.073-1.171-0.328-1.6l-0.537-0.587c0.105-0.893-0.039-1.797-0.416-2.613h5.712l-0.546 4.8zM27.924 25.067h-6.4c-0.219-0.351-0.464-0.685-0.734-1-0.525-0.609-1.141-1.133-1.827-1.554-0.313-0.988-0.831-1.899-1.52-2.674-0.16-0.181-0.32-0.35-0.488-0.513l-0.421-4.444c-0.022-0.227-0.186-0.416-0.408-0.468l-0.473-0.112-0.112-0.969h13.717l-1.334 11.733zM29.379 12.267h-13.959l-0.422-3.733h14.805l-0.424 3.733zM30.933 7.467h-17.067v-1.067c0-0.295 0.239-0.533 0.533-0.533h16c0.295 0 0.533 0.239 0.533 0.533v1.067z"></path>
<path fill="#363853" style="fill: var(--color1, #363853)" d="M22.619 23.467c0.030 0 0.060-0.004 0.090-0.005 0.008 0 0.016 0.005 0.024 0.005 0.027-0.002 0.053-0.005 0.079-0.011 0.835-0.056 1.604-0.472 2.108-1.14 0.672-0.944 0.864-2.148 0.52-3.254-0.074-0.276-0.142-0.547-0.207-0.809-0.416-1.668-0.813-3.241-2.498-3.311-0.017 0-0.033-0.003-0.050-0.003s-0.042-0.004-0.066-0.004c-1.885 0-3.419 1.914-3.419 4.267s1.534 4.267 3.419 4.267zM23.031 16.080c0.551 0.216 0.794 0.939 1.166 2.43 0.067 0.267 0.136 0.546 0.213 0.829 0.255 0.786 0.131 1.646-0.338 2.327-0.17 0.223-0.387 0.405-0.637 0.533-0.018-0.917-0.199-1.823-0.533-2.677-0.053-0.166-0.107-0.327-0.154-0.48-0.31-1.010 0.053-2.318 0.282-2.963zM21.885 16.16c-0.347 1.030-0.4 2.137-0.154 3.195 0.049 0.16 0.104 0.326 0.16 0.498 0.267 0.814 0.587 1.798 0.456 2.522-1.169-0.182-2.081-1.536-2.081-3.175 0-1.416 0.68-2.618 1.619-3.040z"></path>
<path fill="#363853" style="fill: var(--color1, #363853)" d="M2.823 28.046l-0.377 0.377c-0.139 0.134-0.194 0.332-0.145 0.519s0.194 0.332 0.381 0.381c0.187 0.049 0.385-0.007 0.519-0.145l0.377-0.377c0.202-0.209 0.199-0.542-0.006-0.748s-0.538-0.209-0.748-0.007z"></path>
<path fill="#363853" style="fill: var(--color1, #363853)" d="M7.922 24.456c0.208-0.208 0.208-0.546 0-0.755s-0.546-0.208-0.755 0l-0.377 0.377c-0.135 0.135-0.188 0.331-0.138 0.515s0.193 0.328 0.377 0.377 0.381-0.003 0.515-0.138l0.378-0.377z"></path>
<path fill="#363853" style="fill: var(--color1, #363853)" d="M3.2 23.090l-0.377 0.377c-0.139 0.134-0.194 0.332-0.145 0.519s0.194 0.332 0.381 0.381c0.187 0.049 0.385-0.007 0.519-0.145l0.377-0.377c0.202-0.209 0.199-0.542-0.006-0.748s-0.538-0.209-0.748-0.007z"></path>
<path fill="#363853" style="fill: var(--color1, #363853)" d="M3.2 19.356l-0.377 0.377c-0.139 0.134-0.194 0.332-0.145 0.519s0.194 0.332 0.381 0.381c0.187 0.049 0.385-0.007 0.519-0.145l0.377-0.377c0.202-0.209 0.199-0.542-0.006-0.748s-0.538-0.209-0.748-0.006z"></path>
<path fill="#363853" style="fill: var(--color1, #363853)" d="M8 28.046l-0.377 0.377c-0.139 0.134-0.194 0.332-0.145 0.519s0.194 0.332 0.381 0.381c0.186 0.049 0.385-0.007 0.519-0.145l0.377-0.377c0.202-0.209 0.199-0.542-0.006-0.748s-0.538-0.209-0.748-0.007z"></path>
<path fill="#363853" style="fill: var(--color1, #363853)" d="M11.89 28.046l-0.377 0.377c-0.139 0.134-0.194 0.332-0.145 0.519s0.194 0.332 0.381 0.381c0.186 0.049 0.385-0.007 0.519-0.145l0.377-0.377c0.202-0.209 0.199-0.542-0.006-0.748s-0.538-0.209-0.748-0.007z"></path>
</symbol>
<symbol id="icon-sets" viewBox="0 0 32 32">
<path fill="#363853" style="fill: var(--color1, #363853)" d="M22.66 10.66l-0.342-1.114c-0.435-1.265-1.825-1.942-3.105-1.513-0.72 0.242-1.286 0.801-1.53 1.513l-0.342 1.114c-0.288 0.939-0.349 1.933-0.177 2.899 0.157 0.814 0.68 1.513 1.421 1.9l-0.383 8.473c-0.051 0.473 0.104 0.945 0.427 1.298 0.694 0.751 1.873 0.803 2.632 0.117 0.041-0.037 0.080-0.076 0.118-0.117 0.316-0.343 0.471-0.801 0.427-1.263l-0.386-8.509c0.74-0.387 1.262-1.086 1.419-1.899 0.172-0.967 0.112-1.96-0.177-2.899zM21.786 13.376c-0.116 0.585-0.537 1.065-1.107 1.259-0.216 0.080-0.355 0.289-0.345 0.517l0.405 8.899c0.019 0.175-0.040 0.349-0.16 0.478-0.321 0.314-0.838 0.314-1.16 0-0.126-0.14-0.184-0.327-0.157-0.512l0.402-8.864c0.010-0.228-0.129-0.437-0.345-0.517-0.57-0.195-0.991-0.675-1.107-1.259-0.143-0.803-0.092-1.627 0.147-2.407l0.342-1.114c0.265-0.708 1.060-1.070 1.777-0.808 0.379 0.138 0.677 0.434 0.817 0.808l0.342 1.114c0.239 0.78 0.289 1.604 0.147 2.407z"></path>
<path fill="#363853" style="fill: var(--color1, #363853)" d="M14.4 7.907c-0.295 0-0.533 0.236-0.533 0.527v4.526l-1.444 1.427c-0.107 0.105-0.164 0.25-0.156 0.399l0.467 9.225c0.011 0.199-0.062 0.393-0.202 0.537-0.292 0.291-0.767 0.293-1.062 0.005-0.002-0.002-0.003-0.003-0.005-0.005-0.14-0.144-0.213-0.338-0.202-0.537l0.47-9.225c0.008-0.149-0.049-0.294-0.156-0.399l-1.444-1.427v-4.526c0-0.291-0.239-0.527-0.533-0.527s-0.533 0.236-0.533 0.527v4.744c0 0.14 0.056 0.274 0.156 0.373l1.433 1.416-0.455 8.993c-0.048 0.982 0.718 1.817 1.712 1.865s1.839-0.71 1.887-1.692c0.003-0.058 0.003-0.116 0-0.173l-0.455-8.992 1.433-1.416c0.1-0.099 0.156-0.233 0.156-0.373v-4.744c0-0.291-0.239-0.527-0.533-0.527z"></path>
<path fill="#363853" style="fill: var(--color1, #363853)" d="M11.2 7.907c-0.295 0-0.533 0.236-0.533 0.527v4.217c0 0.291 0.239 0.527 0.533 0.527s0.533-0.236 0.533-0.527v-4.217c0-0.291-0.239-0.527-0.533-0.527z"></path>
<path fill="#363853" style="fill: var(--color1, #363853)" d="M12.8 7.907c-0.295 0-0.533 0.236-0.533 0.527v4.217c0 0.291 0.239 0.527 0.533 0.527s0.533-0.236 0.533-0.527v-4.217c0-0.291-0.239-0.527-0.533-0.527z"></path>
<path fill="#363853" style="fill: var(--color1, #363853)" d="M16 0c-8.837 0-16 7.080-16 15.814s7.163 15.814 16 15.814c8.837 0 16-7.080 16-15.814-0.010-8.73-7.168-15.804-16-15.814zM16 30.574c-8.248 0-14.933-6.608-14.933-14.76s6.686-14.76 14.933-14.76c8.248 0 14.933 6.608 14.933 14.76-0.009 8.148-6.69 14.751-14.933 14.76z"></path>
<path fill="#363853" style="fill: var(--color1, #363853)" d="M17.731 25.71c-0.029-0.29-0.289-0.502-0.583-0.474-0.007 0.001-0.014 0.001-0.021 0.002l0.002-0c-0.751 0.086-1.509 0.086-2.26 0-0.293-0.034-0.558 0.173-0.592 0.463s0.175 0.552 0.468 0.585c0.833 0.096 1.674 0.096 2.507 0 0.293-0.028 0.508-0.286 0.479-0.576z"></path>
<path fill="#363853" style="fill: var(--color1, #363853)" d="M24.16 9.022c-0.189-0.223-0.526-0.252-0.751-0.065-0.001 0.001-0.001 0.001-0.002 0.002-0.225 0.188-0.254 0.52-0.064 0.743 3.216 3.773 2.97 9.352-0.566 12.834-0.209 0.206-0.209 0.539-0.001 0.746s0.546 0.207 0.754 0.001c3.929-3.869 4.203-10.068 0.63-14.261z"></path>
<path fill="#363853" style="fill: var(--color1, #363853)" d="M12.426 6.968c-0 0-0.001-0.001-0.001-0.001s-0.001 0.001-0.002 0.001h0.003z"></path>
<path fill="#363853" style="fill: var(--color1, #363853)" d="M18.516 5.566c-2.084-0.494-4.27-0.361-6.278 0.381-0.276 0.102-0.415 0.407-0.312 0.679 0.078 0.205 0.277 0.341 0.499 0.342 0.064-0 0.127-0.012 0.187-0.034 1.808-0.668 3.776-0.788 5.653-0.343 0.286 0.068 0.575-0.106 0.644-0.388s-0.107-0.568-0.393-0.636z"></path>
<path fill="#363853" style="fill: var(--color1, #363853)" d="M9.199 22.509c-1.798-1.774-2.806-4.184-2.799-6.695-0.005-2.006 0.638-3.962 1.835-5.581 0.177-0.233 0.13-0.563-0.106-0.738s-0.57-0.128-0.747 0.105c-0.003 0.004-0.006 0.008-0.009 0.012-3.084 4.19-2.63 9.973 1.070 13.644 0.209 0.206 0.547 0.206 0.755 0s0.209-0.54 0-0.747z"></path>
</symbol>
<symbol id="icon-cart" viewBox="0 0 32 32">
<path fill="none" stroke="#363853" style="stroke: var(--color1, #363853)" stroke-linejoin="round" stroke-linecap="round" stroke-miterlimit="4" stroke-width="2.2857" d="M1.524 2.554l3.17 0.542 1.467 17.28c0.117 1.411 1.31 2.494 2.743 2.49h16.623c1.367 0.003 2.526-0.991 2.72-2.329l1.446-9.877c0.162-1.104-0.614-2.128-1.73-2.288-0.098-0.014-22.761-0.021-22.761-0.021"></path>
<path fill="none" stroke="#363853" style="stroke: var(--color1, #363853)" stroke-linejoin="round" stroke-linecap="round" stroke-miterlimit="4" stroke-width="2.2857" d="M18.857 13.918h4.225"></path>
<path fill="none" stroke="#363853" style="stroke: var(--color1, #363853)" stroke-linejoin="round" stroke-linecap="round" stroke-miterlimit="4" stroke-width="2.2857" d="M8.235 28.086c0.459 0 0.829 0.368 0.829 0.82 0 0.454-0.37 0.821-0.829 0.821s-0.829-0.368-0.829-0.821c0-0.452 0.37-0.82 0.829-0.82z"></path>
<path fill="none" stroke="#363853" style="stroke: var(--color1, #363853)" stroke-linejoin="round" stroke-linecap="round" stroke-miterlimit="4" stroke-width="2.2857" d="M25.424 28.086c0.459 0 0.83 0.368 0.83 0.82 0 0.454-0.372 0.821-0.83 0.821s-0.829-0.368-0.829-0.821c0-0.452 0.37-0.82 0.829-0.82z"></path>
</symbol>
<symbol id="icon-email" viewBox="0 0 32 32">
<path stroke-linejoin="round" stroke-linecap="round" stroke-miterlimit="4" stroke-width="2" d="M23.87 11.801l-5.924 4.817c-1.119 0.888-2.694 0.888-3.813 0l-5.974-4.817"></path>
<path stroke-linejoin="round" stroke-linecap="round" stroke-miterlimit="4" stroke-width="2" d="M22.545 28c4.055 0.011 6.788-3.321 6.788-7.415v-9.158c0-4.095-2.733-7.427-6.788-7.427h-13.090c-4.055 0-6.788 3.332-6.788 7.427v9.158c0 4.095 2.733 7.427 6.788 7.415h13.090z"></path>
</symbol>
<symbol id="icon-facebook" viewBox="0 0 32 32">
<path d="M12.262 31.278v-14.677h-3.881v-5.284h3.881v-4.513c0-3.547 2.292-6.804 7.575-6.804 2.139 0 3.72 0.205 3.72 0.205l-0.125 4.935c0 0-1.613-0.016-3.373-0.016-1.905 0-2.21 0.878-2.21 2.335v3.858h5.734l-0.25 5.284h-5.485v14.677h-5.587z"></path>
</symbol>
<symbol id="icon-instagram" viewBox="0 0 32 32">
<path d="M15.596 10.398c-2.865 0-5.202 2.338-5.202 5.202s2.338 5.202 5.202 5.202 5.202-2.338 5.202-5.202c0-2.865-2.338-5.202-5.202-5.202zM31.199 15.6c0-2.154 0.020-4.289-0.101-6.439-0.121-2.498-0.691-4.714-2.517-6.541-1.83-1.83-4.043-2.396-6.541-2.517-2.154-0.121-4.289-0.101-6.439-0.101-2.154 0-4.289-0.019-6.439 0.101-2.498 0.121-4.714 0.691-6.541 2.517-1.83 1.83-2.396 4.043-2.517 6.541-0.121 2.154-0.101 4.289-0.101 6.439s-0.019 4.289 0.101 6.439c0.121 2.498 0.691 4.714 2.517 6.541 1.83 1.83 4.043 2.396 6.541 2.517 2.154 0.121 4.289 0.101 6.439 0.101 2.154 0 4.289 0.020 6.439-0.101 2.498-0.121 4.714-0.691 6.541-2.517 1.83-1.83 2.396-4.043 2.517-6.541 0.125-2.15 0.101-4.285 0.101-6.439zM15.596 23.604c-4.429 0-8.004-3.575-8.004-8.004s3.575-8.004 8.004-8.004 8.004 3.575 8.004 8.004c0 4.429-3.575 8.004-8.004 8.004zM23.928 9.137c-1.034 0-1.869-0.835-1.869-1.869s0.835-1.869 1.869-1.869c1.034 0 1.869 0.835 1.869 1.869 0 0.246-0.048 0.489-0.142 0.716s-0.232 0.433-0.405 0.607c-0.174 0.174-0.38 0.311-0.607 0.405s-0.47 0.142-0.716 0.142z"></path>
</symbol>
<symbol id="icon-location" viewBox="0 0 32 32">
<path stroke-linejoin="round" stroke-linecap="round" stroke-miterlimit="4" stroke-width="2" d="M19.333 14.001c0-1.842-1.492-3.334-3.333-3.334-1.842 0-3.334 1.492-3.334 3.334 0 1.84 1.492 3.333 3.334 3.333 1.84 0 3.333-1.492 3.333-3.333z"></path>
<path stroke-linejoin="round" stroke-linecap="round" stroke-miterlimit="4" stroke-width="2" d="M15.999 28c-1.598 0-9.999-6.802-9.999-13.916 0-5.569 4.476-10.084 9.999-10.084s10.001 4.516 10.001 10.084c0 7.113-8.403 13.916-10.001 13.916z"></path>
</symbol>
<symbol id="icon-search" viewBox="0 0 32 32">
<path fill="none" stroke="#363853" style="stroke: var(--color1, #363853)" stroke-linejoin="round" stroke-linecap="round" stroke-miterlimit="4" stroke-width="2.2857" d="M28.579 14.674c0 7.477-6.132 13.538-13.697 13.538s-13.697-6.061-13.697-13.538c0-7.477 6.132-13.538 13.697-13.538s13.697 6.061 13.697 13.538z"></path>
<path fill="none" stroke="#363853" style="stroke: var(--color1, #363853)" stroke-linejoin="round" stroke-linecap="round" stroke-miterlimit="4" stroke-width="2.2857" d="M24.409 24.794l5.37 5.294"></path>
</symbol>
<symbol id="icon-tel" viewBox="0 0 32 32">
<path stroke-linejoin="round" stroke-linecap="round" stroke-miterlimit="4" stroke-width="2" d="M19.137 3.333c4.935 0.548 8.833 4.441 9.387 9.376"></path>
<path stroke-linejoin="round" stroke-linecap="round" stroke-miterlimit="4" stroke-width="2" d="M19.137 8.057c2.361 0.459 4.207 2.305 4.667 4.667"></path>
<path stroke-linejoin="round" stroke-linecap="round" stroke-miterlimit="4" stroke-width="2" d="M14.709 16.63c5.319 5.317 6.525-0.834 9.912 2.55 3.265 3.264 5.143 3.918 1.005 8.053-0.518 0.416-3.81 5.426-15.379-6.14-11.57-11.568-6.564-14.863-6.147-15.381 4.146-4.147 4.79-2.259 8.055 1.005 3.385 3.386-2.764 4.596 2.555 9.913z"></path>
</symbol>
<symbol id="icon-telegram" viewBox="0 0 32 32">
<path fill="#fff" style="fill: var(--color2, #fff)" d="M19.422 27.859c-0.488 0-0.939-0.261-1.159-0.677l-3.843-7.263c-0.211-0.399-0.175-0.876 0.093-1.244l6.203-7.946-8.41 5.861c-0.39 0.255-0.895 0.286-1.317 0.088l-7.685-3.63c-0.461-0.219-0.742-0.675-0.713-1.162 0.027-0.487 0.36-0.913 0.844-1.080l24.601-8.565c0.473-0.163 1.005-0.056 1.363 0.283 0.357 0.336 0.474 0.841 0.299 1.288l-9.064 23.247c-0.179 0.458-0.628 0.772-1.143 0.798-0.023 0.001-0.048 0.002-0.071 0.002z"></path>
</symbol>
<symbol id="icon-twitter" viewBox="0 0 32 32">
<path d="M31.278 6.066c-1.15 0.496-2.402 0.853-3.691 0.992 1.339-0.795 2.341-2.052 2.819-3.533-1.256 0.747-2.632 1.271-4.067 1.549-0.6-0.641-1.325-1.152-2.131-1.501s-1.675-0.527-2.553-0.526c-3.552 0-6.409 2.879-6.409 6.413 0 0.496 0.060 0.992 0.158 1.47-5.319-0.278-10.063-2.819-13.216-6.71-0.575 0.982-0.876 2.099-0.872 3.236 0 2.225 1.131 4.187 2.857 5.341-1.017-0.040-2.010-0.319-2.898-0.816v0.079c0 3.116 2.203 5.699 5.138 6.293-0.551 0.143-1.118 0.216-1.688 0.218-0.417 0-0.812-0.041-1.21-0.098 0.812 2.541 3.176 4.387 5.992 4.447-2.203 1.725-4.962 2.74-7.958 2.74-0.538 0-1.034-0.019-1.549-0.079 2.842 1.823 6.214 2.876 9.845 2.876 11.788 0 18.238-9.766 18.238-18.242 0-0.278 0-0.556-0.019-0.835 1.248-0.913 2.342-2.045 3.214-3.315z"></path>
</symbol>
</defs>
</svg>
